<svg
                              preserveAspectRatio="none"
                              id="_67bdc5785fd418dad8c5cfa4_flame_20_2_201_svg_0"
                              class="pointer-events-none"
                              width="19"
                              height="18"
                              viewBox="0 0 19 18"
                              fill="none"
                              xmlns="http://www.w3.org/2000/svg"
                            >
                              <path
                                d="M5.18104 16.3734C4.35485 15.4345 3.52869 14.4582 3.00291 13.294C2.47718 12.0547 2.32695 10.6277 2.58984 9.27575C2.85272 7.92383 3.45356 6.64699 4.31731 5.55795C4.24222 6.4968 4.5802 7.47318 5.2186 8.18671C4.84305 6.38414 5.44392 4.43134 6.64563 3.00431C7.84733 1.57729 9.49971 0.6384 11.2271 0C10.3634 0.901287 10.2508 2.32831 10.5887 3.53005C10.9267 4.73176 11.6403 5.78327 12.2787 6.87231C12.9171 7.96135 13.5179 9.08796 13.5555 10.3272C13.8935 9.68883 14.269 9.0504 14.4943 8.3369C14.7197 7.62337 14.8323 6.87231 14.6446 6.15878C15.3205 6.98497 15.6961 7.81113 15.8838 8.86264C16.0716 9.91416 16.0341 11.0032 15.9214 12.0547C15.7712 13.2189 15.4708 14.4206 14.8324 15.397C14.0813 16.5611 12.8796 17.3873 11.5652 17.8379C9.23683 18.2511 6.94604 17.9131 5.18104 16.3734Z"
                                fill="#F3705A"
                              ></path>
                              <path
                                d="M8.0351 17.7629C11.1145 18.9647 14.1563 15.322 12.4664 12.5054C12.4664 12.4679 12.4288 12.4679 12.4288 12.4304C12.5791 13.97 12.2035 15.0966 11.49 15.7351C11.8655 14.8338 11.6026 13.7823 11.152 12.881C10.7014 12.0173 10.063 11.2287 9.57475 10.4025C9.08654 9.53874 8.71103 8.56232 8.93635 7.58594C8.03507 8.2619 7.39667 9.27585 7.13378 10.3649C6.87089 11.4539 7.02112 12.6557 7.50933 13.6696C6.94602 13.2565 6.53294 12.5806 6.49538 11.867C5.89451 12.5806 5.519 13.5194 5.55653 14.4582C5.55656 15.9228 6.7207 17.2372 8.0351 17.7629Z"
                                fill="#FFD15C"
                              ></path>
                            </svg>