<svg
                        preserveAspectRatio="none"
                        id="Button_60"
                        class="pointer-events-none"
                        width="24"
                        height="25"
                        viewBox="0 0 24 25"
                        fill="none"
                        xmlns="http://www.w3.org/2000/svg"
                      >
                        <path
                          d="M20.6292 7.98538C20.4217 7.2099 19.8138 6.59847 19.0428 6.38969C17.6342 6.00195 12 6.00195 12 6.00195C12 6.00195 6.36572 6.00195 4.95716 6.37477C4.20098 6.58356 3.57825 7.2099 3.37067 7.98538C3 9.40211 3 12.3399 3 12.3399C3 12.3399 3 15.2927 3.37067 16.6945C3.57825 17.47 4.18616 18.0815 4.95716 18.2902C6.38055 18.678 12 18.678 12 18.678C12 18.678 17.6342 18.678 19.0428 18.3051C19.8138 18.0964 20.4217 17.4849 20.6292 16.7095C20.9999 15.2927 20.9999 12.3549 20.9999 12.3549C20.9999 12.3549 21.0147 9.40211 20.6292 7.98538Z"
                          fill="#FF0000"
                        ></path>
                        <path
                          d="M14.8905 12.3391L10.2051 9.625V15.0533L14.8905 12.3391Z"
                          fill="white"
                        ></path>
                      </svg>