<svg
                preserveAspectRatio="none"
                id="Button_container_3"
                class="pointer-events-none"
                width="272"
                height="41"
                viewBox="0 0 272 41"
                fill="none"
                xmlns="http://www.w3.org/2000/svg"
              >
                <path
                  d="M35.4336 0.302734C36.9361 0.302872 38.1543 1.52092 38.1543 3.02344V35.7363C38.1542 37.2388 36.936 38.4569 35.4336 38.457H2.7207C1.21818 38.457 0.000135775 37.2388 0 35.7363V3.02344C1.96552e-05 1.52084 1.21811 0.302753 2.7207 0.302734H35.4336ZM16.8789 11.3906L13.6562 21.8232L10.9131 11.4541H6L11.2637 28.6816H15.6025L18.9521 18.1855L22.2383 28.6816H26.6094L31.9365 11.4541H27.1191L24.3125 21.8545L21.0576 11.3906H16.8789Z"
                  fill="url(#_1_6947__paint0_linear_1_6947)"
                ></path>
                <path
                  d="M55.8026 29.7887H50.9417L45.7871 11.0932H50.274L53.5057 24.1801L57.1112 11.0932H60.5833L64.1888 24.1801L67.4205 11.0932H71.9074L66.7528 29.7887H61.8919L58.8473 18.7584L55.8026 29.7887Z"
                  fill="white"
                ></path>
                <path
                  d="M83.4846 28.1328C82.1225 29.4949 80.4399 30.1626 78.4635 30.1626C76.4872 30.1626 74.8046 29.4949 73.4425 28.1328C72.0804 26.7707 71.386 25.0881 71.386 23.1118C71.386 21.1354 72.0804 19.4795 73.4425 18.1174C74.8046 16.7553 76.4872 16.0609 78.4635 16.0609C80.4399 16.0609 82.1225 16.7553 83.4846 18.1174C84.8467 19.4795 85.5411 21.1354 85.5411 23.1118C85.5411 25.0881 84.8467 26.7707 83.4846 28.1328ZM76.2735 25.3819C76.8611 25.9695 77.5822 26.2633 78.4635 26.2633C79.3449 26.2633 80.066 25.9695 80.6536 25.3819C81.2412 24.7944 81.535 24.0465 81.535 23.1118C81.535 22.177 81.2412 21.4292 80.6536 20.8416C80.066 20.254 79.3449 19.9602 78.4635 19.9602C77.5822 19.9602 76.8611 20.254 76.2735 20.8416C75.6859 21.4292 75.3921 22.177 75.3921 23.1118C75.3921 24.0465 75.6859 24.7944 76.2735 25.3819Z"
                  fill="white"
                ></path>
                <path
                  d="M91.8133 16.4348V18.8118C92.3207 17.1025 94.0033 16.1677 95.8195 16.1677V20.7081C94.8313 20.5478 93.9232 20.7081 93.0686 21.2155C92.2406 21.6962 91.8133 22.5509 91.8133 23.7528V29.7887H87.8071V16.4348H91.8133Z"
                  fill="white"
                ></path>
                <path
                  d="M105.518 23.1118L110.512 29.7887H105.972L101.698 23.8863V29.7887H97.6922V11.0932H101.698V22.2838L105.705 16.4348H110.378L105.518 23.1118Z"
                  fill="white"
                ></path>
                <path
                  d="M114.969 20.3341C114.969 20.8683 116.011 21.1621 117.293 21.5093C119.135 21.9099 121.566 22.8714 121.539 25.7825C121.539 27.2248 121.005 28.3198 119.937 29.0676C118.868 29.7887 117.56 30.1626 115.984 30.1626C113.18 30.1626 111.257 29.0943 110.242 26.9844L113.714 25.008C114.061 26.0496 114.835 26.5838 115.984 26.5838C116.945 26.5838 117.426 26.3167 117.426 25.7558C117.426 25.2217 116.385 24.9012 115.103 24.5807C113.26 24.0732 110.856 23.1652 110.856 20.441C110.856 19.0522 111.363 17.9839 112.352 17.2093C113.367 16.4348 114.622 16.0609 116.091 16.0609C118.307 16.0609 120.204 17.0758 121.299 18.9186L117.88 20.7615C117.453 19.9869 116.865 19.5863 116.091 19.5863C115.343 19.5863 114.969 19.8267 114.969 20.3341Z"
                  fill="white"
                ></path>
                <path
                  d="M131.365 23.1118L136.359 29.7887H131.819L127.545 23.8863V29.7887H123.539V11.0932H127.545V22.2838L131.552 16.4348H136.226L131.365 23.1118Z"
                  fill="white"
                ></path>
                <path
                  d="M141.518 14.5652C140.583 15.5 139.087 15.5 138.126 14.5652C137.191 13.6038 137.191 12.1081 138.126 11.1734C139.087 10.2119 140.583 10.2119 141.518 11.1734C142.479 12.1081 142.479 13.6038 141.518 14.5652ZM141.838 29.7887H137.832V16.4348H141.838V29.7887Z"
                  fill="white"
                ></path>
                <path
                  d="M148.776 29.7887H144.77V10.292H148.776V29.7887Z"
                  fill="white"
                ></path>
                <path
                  d="M155.714 29.7887H151.708V10.292H155.714V29.7887Z"
                  fill="white"
                ></path>
                <path
                  d="M162.308 20.3341C162.308 20.8683 163.349 21.1621 164.631 21.5093C166.474 21.9099 168.904 22.8714 168.878 25.7825C168.878 27.2248 168.344 28.3198 167.275 29.0676C166.207 29.7887 164.898 30.1626 163.323 30.1626C160.518 30.1626 158.595 29.0943 157.58 26.9844L161.052 25.008C161.4 26.0496 162.174 26.5838 163.323 26.5838C164.284 26.5838 164.765 26.3167 164.765 25.7558C164.765 25.2217 163.723 24.9012 162.441 24.5807C160.598 24.0732 158.195 23.1652 158.195 20.441C158.195 19.0522 158.702 17.9839 159.69 17.2093C160.705 16.4348 161.96 16.0609 163.429 16.0609C165.646 16.0609 167.542 17.0758 168.637 18.9186L165.219 20.7615C164.791 19.9869 164.204 19.5863 163.429 19.5863C162.682 19.5863 162.308 19.8267 162.308 20.3341Z"
                  fill="white"
                ></path>
                <defs>
                  <linearGradient
                    id="_1_6947__paint0_linear_1_6947"
                    x1="0"
                    y1="19.3799"
                    x2="38.1543"
                    y2="19.3799"
                    gradientUnits="userSpaceOnUse"
                  >
                    <stop stop-color="#73E49A"></stop>
                    <stop offset="0.989583" stop-color="#32C665"></stop>
                  </linearGradient>
                </defs>
              </svg>