<svg
                        preserveAspectRatio="none"
                        id="Button_59"
                        class="pointer-events-none"
                        width="24"
                        height="25"
                        viewBox="0 0 24 25"
                        fill="none"
                        xmlns="http://www.w3.org/2000/svg"
                      >
                        <path
                          d="M18.9908 5.98608H3.84204V20.2933H18.9908V5.98608Z"
                          fill="white"
                        ></path>
                        <path
                          d="M17.4848 18.6447H14.9659V14.7389C14.9659 13.8075 14.9492 12.6086 13.6559 12.6086C12.344 12.6086 12.1432 13.6233 12.1432 14.6711V18.6444H9.62435V10.6125H12.0425V11.7102H12.0763C12.3183 11.3005 12.668 10.9634 13.0882 10.735C13.5083 10.5065 13.9832 10.3951 14.4622 10.4127C17.0152 10.4127 17.4859 12.0754 17.4859 14.2385L17.4848 18.6447ZM6.78224 9.51465C6.49313 9.5147 6.2105 9.42987 5.97009 9.27087C5.72968 9.11188 5.5423 8.88587 5.43162 8.62142C5.32093 8.35698 5.29193 8.06597 5.34828 7.78521C5.40463 7.50444 5.5438 7.24653 5.74819 7.04408C5.95258 6.84163 6.21301 6.70373 6.49655 6.64784C6.78009 6.59194 7.07399 6.62055 7.34111 6.73005C7.60823 6.83955 7.83655 7.02501 7.99721 7.263C8.15787 7.50098 8.24365 7.7808 8.24371 8.06705C8.24374 8.25712 8.20596 8.44533 8.13253 8.62094C8.05911 8.79656 7.95148 8.95613 7.81577 9.09055C7.68006 9.22497 7.51892 9.33161 7.34159 9.40438C7.16426 9.47714 6.97419 9.51461 6.78224 9.51465ZM8.04167 18.6447H5.52018V10.6125H8.04167V18.6447ZM18.7406 4.30388H4.25445C3.92566 4.3002 3.60883 4.42593 3.3736 4.65343C3.13838 4.88092 3.00401 5.19158 3 5.51713V19.9201C3.00388 20.2458 3.13817 20.5566 3.37338 20.7844C3.60859 21.0121 3.92549 21.1381 4.25445 21.1346H18.7406C19.0702 21.1387 19.388 21.0131 19.6241 20.7854C19.8602 20.5576 19.9954 20.2464 20 19.9201V5.51609C19.9953 5.1899 19.86 4.87889 19.6239 4.65139C19.3877 4.4239 19.07 4.29854 18.7406 4.30284"
                          fill="#0A66C2"
                        ></path>
                      </svg>