<svg
                                    preserveAspectRatio="none"
                                    id="Clip_path_group"
                                    class="pointer-events-none"
                                    width="18"
                                    height="19"
                                    viewBox="0 0 18 19"
                                    fill="none"
                                    xmlns="http://www.w3.org/2000/svg"
                                  >
                                    <mask
                                      id="_1_7284__mask0_1_7284"
                                      style="mask-type: luminance"
                                      maskUnits="userSpaceOnUse"
                                      x="0"
                                      y="0"
                                      width="18"
                                      height="19"
                                    >
                                      <path
                                        d="M18 0.287109H0V18.2871H18V0.287109Z"
                                        fill="white"
                                      ></path>
                                    </mask>
                                    <g mask="url(#_1_7284__mask0_1_7284)">
                                      <path
                                        d="M15.3097 2.90288C13.6251 1.21706 11.385 0.288138 8.99829 0.287109C4.0802 0.287109 0.0778539 4.28817 0.075885 9.20605C0.0753119 10.7781 0.486059 12.3126 1.26678 13.6652L0.000976562 18.2871L4.73085 17.0469C6.03402 17.7576 7.5013 18.1321 8.99446 18.1327H8.99825C13.9155 18.1327 17.9186 14.1309 17.9206 9.21327C17.9215 6.82984 16.9942 4.58882 15.3097 2.90288ZM8.99829 16.6262H8.9954C7.66447 16.6255 6.35932 16.2682 5.22091 15.5927L4.94999 15.4321L2.14319 16.168L2.89257 13.4324L2.71605 13.1519C1.97365 11.9715 1.58173 10.6073 1.58229 9.20662C1.58392 5.11904 4.91051 1.79361 9.0011 1.79361C10.982 1.79443 12.8438 2.56656 14.244 3.96776C15.6442 5.36895 16.4147 7.23164 16.4141 9.21264C16.4124 13.3003 13.0857 16.6262 8.99829 16.6262Z"
                                        fill="#E0E0E0"
                                      ></path>
                                      <path
                                        d="M0.410156 17.7741L1.61814 13.3634C0.87289 12.0725 0.48098 10.6079 0.48145 9.108C0.483404 4.41487 4.30296 0.59668 8.99599 0.59668C11.2738 0.597709 13.4116 1.48415 15.0189 3.09301C16.6266 4.70185 17.5115 6.84035 17.5105 9.11466C17.5086 13.8079 13.6888 17.6265 8.99632 17.6265C8.99599 17.6265 8.99656 17.6265 8.99632 17.6265H8.99253C7.56758 17.626 6.16744 17.2683 4.92388 16.5906L0.410156 17.7741Z"
                                        fill="url(#_1_7284__paint0_linear_1_7284)"
                                      ></path>
                                      <path
                                        fill-rule="evenodd"
                                        clip-rule="evenodd"
                                        d="M6.79385 5.41916C6.62879 5.05215 6.45499 5.04481 6.29795 5.03839C6.1695 5.03288 6.02244 5.03321 5.87563 5.03321C5.72869 5.03321 5.48992 5.08843 5.288 5.30896C5.08597 5.52948 4.5166 6.06258 4.5166 7.14681C4.5166 8.23116 5.30637 9.2789 5.41646 9.42605C5.52666 9.57299 6.94102 11.8691 9.18097 12.7524C11.0426 13.4865 11.4214 13.3405 11.8255 13.3038C12.2296 13.267 13.1293 12.7708 13.313 12.2561C13.4967 11.7416 13.4967 11.3006 13.4416 11.2084C13.3865 11.1166 13.2395 11.0615 13.0191 10.9513C12.7987 10.8411 11.7153 10.3078 11.5133 10.2344C11.3112 10.161 11.1643 10.1242 11.0174 10.3448C10.8704 10.5652 10.4483 11.0615 10.3198 11.2084C10.1912 11.3557 10.0626 11.374 9.84218 11.2638C9.62177 11.1533 8.91201 10.9208 8.07001 10.1701C7.41489 9.58605 6.97258 8.86468 6.84402 8.64406C6.71545 8.42365 6.83023 8.30426 6.94079 8.1944C7.03973 8.09567 7.16119 7.93714 7.27139 7.80845C7.38136 7.67977 7.41809 7.58793 7.49156 7.44099C7.56502 7.29382 7.52829 7.16515 7.47319 7.05495C7.41809 6.94474 6.9898 5.85491 6.79385 5.41916Z"
                                        fill="white"
                                      ></path>
                                      <path
                                        d="M15.2365 2.87481C13.5712 1.20834 11.3568 0.290106 8.99756 0.289062C4.1359 0.289062 0.179511 4.24419 0.177557 9.10561C0.176984 10.6596 0.583015 12.1765 1.35477 13.5137L0.103516 18.0825L4.77909 16.8565C6.06731 17.559 7.51774 17.9292 8.99377 17.9298H8.99751C13.8584 17.9298 17.8153 13.974 17.8174 9.11272C17.8182 6.75669 16.9016 4.5414 15.2365 2.87481ZM8.99756 16.4407H8.99469C7.67903 16.44 6.38885 16.0868 5.26352 15.419L4.9957 15.2603L2.22112 15.9877L2.96189 13.2835L2.7874 13.0063C2.05353 11.8394 1.6661 10.4909 1.66667 9.1062C1.66827 5.06555 4.95668 1.77829 9.00032 1.77829C10.9585 1.7791 12.7989 2.54237 14.183 3.92748C15.5671 5.3126 16.3288 7.15389 16.3282 9.11218C16.3265 13.153 13.0379 16.4407 8.99756 16.4407Z"
                                        fill="white"
                                      ></path>
                                    </g>
                                    <defs>
                                      <linearGradient
                                        id="_1_7284__paint0_linear_1_7284"
                                        x1="8.96034"
                                        y1="17.7741"
                                        x2="8.96034"
                                        y2="0.596708"
                                        gradientUnits="userSpaceOnUse"
                                      >
                                        <stop stop-color="#20B038"></stop>
                                        <stop
                                          offset="1"
                                          stop-color="#60D66A"
                                        ></stop>
                                      </linearGradient>
                                    </defs>
                                  </svg>