<svg
                          preserveAspectRatio="none"
                          id="facebook_icon_svg"
                          class="pointer-events-none"
                          width="24"
                          height="25"
                          viewBox="0 0 24 25"
                          fill="none"
                          xmlns="http://www.w3.org/2000/svg"
                        >
                          <path
                            d="M21 12.1368C21 7.16615 16.9706 3.13672 12 3.13672C7.02943 3.13672 3 7.16615 3 12.1368C3 16.6289 6.29117 20.3522 10.5938 21.0274V14.7383H8.30859V12.1368H10.5938V10.1539C10.5938 7.89828 11.9374 6.65234 13.9932 6.65234C14.9779 6.65234 16.0078 6.82812 16.0078 6.82812V9.04297H14.8729C13.7549 9.04297 13.4062 9.73672 13.4062 10.4485V12.1368H15.9023L15.5033 14.7383H13.4062V21.0274C17.7088 20.3522 21 16.6289 21 12.1368Z"
                            fill="#1877F2"
                          ></path>
                          <path
                            d="M15.5033 14.7383L15.9023 12.1367H13.4062V10.4484C13.4062 9.73673 13.7549 9.04297 14.8729 9.04297H16.0078V6.82813C16.0078 6.82813 14.9779 6.65234 13.9932 6.65234C11.9374 6.65234 10.5937 7.89828 10.5937 10.1539V12.1367H8.30859V14.7383H10.5937V21.0274C11.052 21.0993 11.5216 21.1367 12 21.1367C12.4784 21.1367 12.948 21.0993 13.4062 21.0274V14.7383H15.5033Z"
                            fill="white"
                          ></path>
                        </svg>