<svg
                preserveAspectRatio="none"
                id="fluent_chart_multiple_32_filled_1"
                class="pointer-events-none"
                width="24"
                height="24"
                viewBox="0 0 24 24"
                fill="none"
                xmlns="http://www.w3.org/2000/svg"
              >
                <path
                  d="M10.5 5.65457C10.5 5.02157 9.96 4.47182 9.276 4.54457C5.32575 4.96907 2.25 8.31182 2.25 12.3746C2.25 16.7246 5.77575 20.2496 10.125 20.2496C10.639 20.2491 11.139 20.2016 11.625 20.1071V18.7496C11.6249 18.3064 11.737 17.8704 11.9509 17.4823C12.1648 17.0942 12.4734 16.7665 12.8481 16.5298C13.2228 16.2931 13.6512 16.1552 14.0936 16.1288C14.536 16.1024 14.9778 16.1884 15.378 16.3788C15.4079 15.729 15.678 15.1134 16.136 14.6514C16.594 14.1894 17.2072 13.9139 17.8568 13.8783C17.8983 13.6633 17.9307 13.4451 17.9542 13.2236C18.0285 12.5388 17.478 11.9996 16.845 11.9996H12.75C12.1533 11.9996 11.581 11.7625 11.159 11.3406C10.7371 10.9186 10.5 10.3463 10.5 9.74957V5.65457Z"
                  fill="#6CE9A6"
                ></path>
                <path
                  d="M12.711 1.5105C12.848 1.5035 12.986 1.5 13.125 1.5C17.4742 1.5 21 5.02575 21 9.375C21 9.5135 20.9965 9.6515 20.9895 9.789C20.9795 9.98095 20.8962 10.1617 20.7568 10.294C20.6174 10.4263 20.4325 10.5001 20.2402 10.5H13.5C13.1022 10.5 12.7206 10.342 12.4393 10.0607C12.158 9.77936 12 9.39782 12 9V2.25975C11.9999 2.06754 12.0737 1.88265 12.206 1.74322C12.3383 1.6038 12.5191 1.52049 12.711 1.5105Z"
                  fill="#027A48"
                ></path>
                <path
                  d="M20.25 13.5C20.25 13.1022 20.408 12.7206 20.6893 12.4393C20.9706 12.158 21.3522 12 21.75 12C22.1478 12 22.5294 12.158 22.8107 12.4393C23.092 12.7206 23.25 13.1022 23.25 13.5V21.75C23.25 22.1478 23.092 22.5294 22.8107 22.8107C22.5294 23.092 22.1478 23.25 21.75 23.25C21.3522 23.25 20.9706 23.092 20.6893 22.8107C20.408 22.5294 20.25 22.1478 20.25 21.75V13.5ZM16.5 16.5C16.5 16.1022 16.658 15.7206 16.9393 15.4393C17.2206 15.158 17.6022 15 18 15C18.3978 15 18.7794 15.158 19.0607 15.4393C19.342 15.7206 19.5 16.1022 19.5 16.5V21.75C19.5 22.1478 19.342 22.5294 19.0607 22.8107C18.7794 23.092 18.3978 23.25 18 23.25C17.6022 23.25 17.2206 23.092 16.9393 22.8107C16.658 22.5294 16.5 22.1478 16.5 21.75V16.5ZM14.25 17.25C13.8522 17.25 13.4706 17.408 13.1893 17.6893C12.908 17.9706 12.75 18.3522 12.75 18.75V21.75C12.75 22.1478 12.908 22.5294 13.1893 22.8107C13.4706 23.092 13.8522 23.25 14.25 23.25C14.6478 23.25 15.0294 23.092 15.3107 22.8107C15.592 22.5294 15.75 22.1478 15.75 21.75V18.75C15.75 18.3522 15.592 17.9706 15.3107 17.6893C15.0294 17.408 14.6478 17.25 14.25 17.25Z"
                  fill="#12B76A"
                ></path>
              </svg>