<svg
                  preserveAspectRatio="none"
                  id="Frame_1171275486"
                  class="pointer-events-none"
                  width="136"
                  height="32"
                  viewBox="0 0 136 32"
                  fill="none"
                  xmlns="http://www.w3.org/2000/svg"
                >
                  <path
                    d="M28.347 0C29.5491 0 30.5238 0.974661 30.5238 2.17676V28.3467C30.5238 29.5488 29.5491 30.5234 28.347 30.5234H2.17712C0.975116 30.5233 0.000369215 29.5487 0.000366211 28.3467V2.17676C0.000366211 0.974724 0.975114 0.000102528 2.17712 0H28.347ZM13.5902 8.34277L11.0131 16.6885L8.81775 8.39355H4.88708L9.09802 22.1758H12.5697L15.2494 13.7793L17.8783 22.1758H21.3744L25.6371 8.39355H21.7826L19.5375 16.7139L16.934 8.34277H13.5902Z"
                    fill="url(#_1_7033__paint0_linear_1_7033)"
                  ></path>
                  <path
                    d="M44.6422 23.5886H40.7536L36.6299 8.6322H40.2194L42.8047 19.1017L45.6892 8.6322H48.4668L51.3513 19.1017L53.9366 8.6322H57.5261L53.4024 23.5886H49.5138L47.078 14.7643L44.6422 23.5886Z"
                    fill="#142952"
                  ></path>
                  <path
                    d="M66.7879 22.2639C65.6982 23.3536 64.3521 23.8877 62.771 23.8877C61.1899 23.8877 59.8439 23.3536 58.7542 22.2639C57.6645 21.1742 57.109 19.8281 57.109 18.247C57.109 16.6659 57.6645 15.3412 58.7542 14.2515C59.8439 13.1619 61.1899 12.6063 62.771 12.6063C64.3521 12.6063 65.6982 13.1619 66.7879 14.2515C67.8776 15.3412 68.4331 16.6659 68.4331 18.247C68.4331 19.8281 67.8776 21.1742 66.7879 22.2639ZM61.019 20.0632C61.4891 20.5332 62.0659 20.7683 62.771 20.7683C63.4761 20.7683 64.053 20.5332 64.5231 20.0632C64.9931 19.5931 65.2282 18.9948 65.2282 18.247C65.2282 17.4992 64.9931 16.901 64.5231 16.4309C64.053 15.9608 63.4761 15.7258 62.771 15.7258C62.0659 15.7258 61.4891 15.9608 61.019 16.4309C60.5489 16.901 60.3139 17.4992 60.3139 18.247C60.3139 18.9948 60.5489 19.5931 61.019 20.0632Z"
                    fill="#142952"
                  ></path>
                  <path
                    d="M73.4508 12.9055V14.8071C73.8568 13.4396 75.2029 12.6918 76.6558 12.6918V16.3241C75.8652 16.1959 75.1388 16.3241 74.4551 16.73C73.7927 17.1146 73.4508 17.7983 73.4508 18.7598V23.5886H70.2459V12.9055H73.4508Z"
                    fill="#142952"
                  ></path>
                  <path
                    d="M84.4142 18.247L88.4097 23.5886H84.7775L81.3589 18.8666V23.5886H78.1539V8.6322H81.3589V17.5847L84.5638 12.9055H88.3029L84.4142 18.247Z"
                    fill="#142952"
                  ></path>
                  <path
                    d="M91.9754 16.0249C91.9754 16.4523 92.8087 16.6873 93.8343 16.9651C95.3085 17.2855 97.2529 18.0547 97.2315 20.3837C97.2315 21.5374 96.8042 22.4135 95.9495 23.0117C95.0949 23.5886 94.0479 23.8877 92.7873 23.8877C90.5439 23.8877 89.0055 23.0331 88.1936 21.3451L90.9712 19.764C91.249 20.5973 91.8686 21.0246 92.7873 21.0246C93.5565 21.0246 93.9411 20.811 93.9411 20.3623C93.9411 19.935 93.1078 19.6786 92.0822 19.4222C90.608 19.0162 88.685 18.2898 88.685 16.1104C88.685 14.9994 89.091 14.1447 89.8815 13.5251C90.6934 12.9055 91.6976 12.6063 92.8728 12.6063C94.6462 12.6063 96.1632 13.4182 97.0392 14.8925L94.3043 16.3668C93.9625 15.7472 93.4924 15.4267 92.8728 15.4267C92.2745 15.4267 91.9754 15.619 91.9754 16.0249Z"
                    fill="#142952"
                  ></path>
                  <path
                    d="M105.092 18.247L109.087 23.5886H105.455L102.037 18.8666V23.5886H98.8316V8.6322H102.037V17.5847L105.242 12.9055H108.981L105.092 18.247Z"
                    fill="#142952"
                  ></path>
                  <path
                    d="M113.214 11.4098C112.467 12.1576 111.27 12.1576 110.501 11.4098C109.753 10.6406 109.753 9.44412 110.501 8.6963C111.27 7.92711 112.467 7.92711 113.214 8.6963C113.984 9.44412 113.984 10.6406 113.214 11.4098ZM113.471 23.5886H110.266V12.9055H113.471V23.5886Z"
                    fill="#142952"
                  ></path>
                  <path
                    d="M119.021 23.5886H115.816V7.99121H119.021V23.5886Z"
                    fill="#142952"
                  ></path>
                  <path
                    d="M124.571 23.5886H121.366V7.99121H124.571V23.5886Z"
                    fill="#142952"
                  ></path>
                  <path
                    d="M129.846 16.0249C129.846 16.4523 130.68 16.6873 131.705 16.9651C133.179 17.2855 135.124 18.0547 135.102 20.3837C135.102 21.5374 134.675 22.4135 133.82 23.0117C132.966 23.5886 131.919 23.8877 130.658 23.8877C128.415 23.8877 126.876 23.0331 126.064 21.3451L128.842 19.764C129.12 20.5973 129.739 21.0246 130.658 21.0246C131.427 21.0246 131.812 20.811 131.812 20.3623C131.812 19.935 130.979 19.6786 129.953 19.4222C128.479 19.0162 126.556 18.2898 126.556 16.1104C126.556 14.9994 126.962 14.1447 127.752 13.5251C128.564 12.9055 129.569 12.6063 130.744 12.6063C132.517 12.6063 134.034 13.4182 134.91 14.8925L132.175 16.3668C131.833 15.7472 131.363 15.4267 130.744 15.4267C130.145 15.4267 129.846 15.619 129.846 16.0249Z"
                    fill="#142952"
                  ></path>
                  <defs>
                    <linearGradient
                      id="_1_7033__paint0_linear_1_7033"
                      x1="0.000366211"
                      y1="15.2617"
                      x2="30.5238"
                      y2="15.2617"
                      gradientUnits="userSpaceOnUse"
                    >
                      <stop stop-color="#73E49A"></stop>
                      <stop offset="0.989583" stop-color="#32C665"></stop>
                    </linearGradient>
                  </defs>
                </svg>