<svg
                preserveAspectRatio="none"
                id="Frame_1171275486_0"
                class="pointer-events-none"
                width="24"
                height="7"
                viewBox="0 0 24 7"
                fill="none"
                xmlns="http://www.w3.org/2000/svg"
              >
                <path
                  d="M5.79299 0.577469C5.9973 0.5853 6.15654 0.75797 6.1488 0.962307L5.98027 5.41126C5.97253 5.6156 5.80069 5.77573 5.59637 5.76808L1.14644 5.59952C0.942069 5.59175 0.782892 5.41906 0.790634 5.21468L0.959159 0.765725C0.9669 0.561348 1.13869 0.401192 1.34306 0.408907L5.79299 0.577469ZM3.23037 1.89938L2.73846 3.30169L2.41812 1.87741L1.74966 1.85209L2.37719 4.22227L2.96758 4.24463L3.47739 2.83421L3.87026 4.27883L4.46456 4.30134L5.27838 1.98576L4.6226 1.96092L4.18747 3.36049L3.79833 1.9209L3.23037 1.89938Z"
                  fill="url(#_1_7194__paint0_linear_1_7194)"
                ></path>
                <path
                  d="M8.40996 4.69375L7.74877 4.66871L7.14394 2.0991L7.75427 2.12222L8.12643 3.919L8.6843 2.15745L9.15658 2.17534L9.5796 3.97405L10.0866 2.21057L10.6969 2.23369L9.89946 4.75017L9.23827 4.72513L8.88095 3.20904L8.40996 4.69375Z"
                  fill="#004D30"
                ></path>
                <path
                  d="M12.1839 4.61114C11.9916 4.7894 11.7593 4.87156 11.4905 4.86137C11.2216 4.85119 10.9962 4.7517 10.818 4.5594C10.6397 4.3671 10.5539 4.13465 10.5641 3.86581C10.5743 3.59698 10.6773 3.37532 10.8696 3.19705C11.0619 3.01879 11.2943 2.93301 11.5631 2.94319C11.832 2.95337 12.0573 3.0565 12.2355 3.2488C12.4138 3.44109 12.4997 3.66991 12.4895 3.93875C12.4794 4.20759 12.3762 4.43288 12.1839 4.61114ZM11.2172 4.1998C11.2941 4.28275 11.3907 4.32643 11.5106 4.33097C11.6305 4.33551 11.7301 4.29926 11.813 4.22237C11.896 4.14547 11.9398 4.04526 11.9446 3.91811C11.9494 3.79096 11.9133 3.68772 11.8364 3.60477C11.7595 3.52182 11.6629 3.47814 11.5431 3.4736C11.4232 3.46906 11.3236 3.5053 11.2406 3.5822C11.1577 3.6591 11.1138 3.7593 11.109 3.88646C11.1042 4.01361 11.1403 4.11684 11.2172 4.1998Z"
                  fill="#004D30"
                ></path>
                <path
                  d="M13.3771 3.06284L13.3649 3.38617C13.4427 3.15627 13.6764 3.03779 13.9234 3.04715L13.9 3.66475C13.7664 3.63786 13.6421 3.65498 13.5232 3.7196C13.4081 3.78072 13.3456 3.89478 13.3394 4.05826L13.3083 4.8793L12.7634 4.85866L12.8322 3.0422L13.3771 3.06284Z"
                  fill="#004D30"
                ></path>
                <path
                  d="M15.2068 4.04168L15.8518 4.97564L15.2342 4.95225L14.6833 4.12736L14.6529 4.93023L14.108 4.90959L14.2043 2.36654L14.7492 2.38719L14.6916 3.90938L15.2667 3.13441L15.9024 3.15849L15.2068 4.04168Z"
                  fill="#004D30"
                ></path>
                <path
                  d="M16.5068 3.71255C16.504 3.78521 16.6442 3.83054 16.8168 3.88438C17.0654 3.94836 17.391 4.09167 17.3724 4.48752C17.365 4.6837 17.2867 4.8299 17.1375 4.92612C16.9885 5.0187 16.8085 5.06282 16.5942 5.0547C16.2127 5.04025 15.9566 4.88503 15.8295 4.59279L16.3119 4.34185C16.3538 4.48532 16.4564 4.56197 16.6126 4.56789C16.7434 4.57284 16.8102 4.53899 16.8131 4.4627C16.8158 4.39004 16.6758 4.34108 16.503 4.29088C16.255 4.21236 15.9327 4.07645 15.9467 3.70589C15.9539 3.51698 16.0284 3.37428 16.1668 3.27402C16.3089 3.17389 16.4816 3.1295 16.6814 3.13707C16.9829 3.14849 17.2356 3.29631 17.3751 3.55262L16.9005 3.78568C16.8464 3.67812 16.7686 3.6206 16.6632 3.61661C16.5615 3.61276 16.5094 3.64353 16.5068 3.71255Z"
                  fill="#004D30"
                ></path>
                <path
                  d="M18.7227 4.17486L19.3676 5.10882L18.75 5.08543L18.1992 4.26053L18.1688 5.06341L17.6238 5.04277L17.7201 2.49972L18.2651 2.52036L18.2074 4.04256L18.7825 3.26759L19.4183 3.29167L18.7227 4.17486Z"
                  fill="#004D30"
                ></path>
                <path
                  d="M20.1478 3.06464C20.0158 3.18697 19.8124 3.17927 19.6864 3.04716C19.5642 2.91156 19.5719 2.70812 19.7039 2.58578C19.8396 2.45995 20.0431 2.46766 20.1653 2.60326C20.2912 2.73536 20.2835 2.93881 20.1478 3.06464ZM20.1129 5.13706L19.568 5.11641L19.6368 3.29995L20.1817 3.32059L20.1129 5.13706Z"
                  fill="#004D30"
                ></path>
                <path
                  d="M21.0566 5.1728L20.5117 5.15216L20.6122 2.50013L21.1571 2.52077L21.0566 5.1728Z"
                  fill="#004D30"
                ></path>
                <path
                  d="M22.0004 5.20855L21.4554 5.18791L21.5559 2.53587L22.1008 2.55652L22.0004 5.20855Z"
                  fill="#004D30"
                ></path>
                <path
                  d="M22.946 3.95647C22.9432 4.02913 23.0834 4.07446 23.256 4.12829C23.5046 4.19228 23.8302 4.33559 23.8116 4.73144C23.8042 4.92762 23.7259 5.07381 23.5767 5.17003C23.4277 5.26262 23.2477 5.30673 23.0334 5.29861C22.6519 5.28417 22.3959 5.12894 22.2687 4.83671L22.7511 4.58576C22.793 4.72924 22.8956 4.80589 23.0518 4.8118C23.1826 4.81676 23.2494 4.78291 23.2523 4.70661C23.255 4.63396 23.115 4.58499 22.9423 4.53479C22.6942 4.45627 22.3719 4.32037 22.386 3.94981C22.3931 3.7609 22.4676 3.61819 22.606 3.51793C22.7481 3.41781 22.9208 3.37341 23.1206 3.38098C23.4221 3.3924 23.6748 3.54023 23.8143 3.79654L23.3398 4.0296C23.2856 3.92204 23.2078 3.86452 23.1024 3.86053C23.0007 3.85667 22.9486 3.88744 22.946 3.95647Z"
                  fill="#004D30"
                ></path>
                <defs>
                  <linearGradient
                    id="_1_7194__paint0_linear_1_7194"
                    x1="0.874896"
                    y1="2.9902"
                    x2="6.06453"
                    y2="3.18679"
                    gradientUnits="userSpaceOnUse"
                  >
                    <stop stop-color="#73E49A"></stop>
                    <stop offset="0.989583" stop-color="#32C665"></stop>
                  </linearGradient>
                </defs>
              </svg>