<svg
                  preserveAspectRatio="none"
                  tabindex="0"
                  data-reaction-click="9817"
                  id="Frame_1171275486_2"
                  width="170"
                  height="40"
                  viewBox="0 0 170 40"
                  fill="none"
                  xmlns="http://www.w3.org/2000/svg"
                >
                  <path
                    d="M35.4336 0C36.9361 0.000137157 38.1543 1.21818 38.1543 2.7207V35.4336C38.1542 36.936 36.936 38.1542 35.4336 38.1543H2.7207C1.21818 38.1543 0.000135775 36.9361 0 35.4336V2.7207C1.96552e-05 1.21811 1.21811 1.82723e-05 2.7207 0H35.4336ZM16.9883 10.4297L13.7656 20.8623L11.0225 10.4932H6.10938L11.373 27.7207H15.7119L19.0615 17.2246L22.3477 27.7207H26.7188L32.0459 10.4932H27.2285L24.4219 20.8936L21.167 10.4297H16.9883Z"
                    fill="url(#_12_2212__paint0_linear_12_2212)"
                  ></path>
                  <path
                    d="M55.8006 29.485H50.9398L45.7852 10.7895H50.2721L53.5037 23.8764L57.1093 10.7895H60.5813L64.1869 23.8764L67.4185 10.7895H71.9054L66.7508 29.485H61.89L58.8453 18.4547L55.8006 29.485Z"
                    fill="#142952"
                  ></path>
                  <path
                    d="M83.4827 27.8291C82.1206 29.1912 80.438 29.8589 78.4616 29.8589C76.4852 29.8589 74.8026 29.1912 73.4405 27.8291C72.0784 26.467 71.384 24.7844 71.384 22.8081C71.384 20.8317 72.0784 19.1758 73.4405 17.8137C74.8026 16.4516 76.4852 15.7572 78.4616 15.7572C80.438 15.7572 82.1206 16.4516 83.4827 17.8137C84.8448 19.1758 85.5392 20.8317 85.5392 22.8081C85.5392 24.7844 84.8448 26.467 83.4827 27.8291ZM76.2715 25.0782C76.8591 25.6658 77.5802 25.9596 78.4616 25.9596C79.3429 25.9596 80.0641 25.6658 80.6516 25.0782C81.2392 24.4906 81.533 23.7428 81.533 22.8081C81.533 21.8733 81.2392 21.1255 80.6516 20.5379C80.0641 19.9503 79.3429 19.6565 78.4616 19.6565C77.5802 19.6565 76.8591 19.9503 76.2715 20.5379C75.684 21.1255 75.3902 21.8733 75.3902 22.8081C75.3902 23.7428 75.684 24.4906 76.2715 25.0782Z"
                    fill="#142952"
                  ></path>
                  <path
                    d="M91.8113 16.1311V18.5081C92.3188 16.7988 94.0014 15.864 95.8175 15.864V20.4043C94.8293 20.2441 93.9213 20.4043 93.0666 20.9118C92.2387 21.3925 91.8113 22.2472 91.8113 23.449V29.485H87.8052V16.1311H91.8113Z"
                    fill="#142952"
                  ></path>
                  <path
                    d="M105.516 22.8081L110.51 29.485H105.97L101.696 23.5826V29.485H97.6902V10.7895H101.696V21.9801L105.703 16.1311H110.376L105.516 22.8081Z"
                    fill="#142952"
                  ></path>
                  <path
                    d="M114.967 20.0304C114.967 20.5646 116.009 20.8584 117.291 21.2056C119.133 21.6062 121.564 22.5677 121.537 25.4788C121.537 26.9211 121.003 28.0161 119.935 28.7639C118.866 29.485 117.558 29.8589 115.982 29.8589C113.178 29.8589 111.255 28.7906 110.24 26.6807L113.712 24.7043C114.059 25.7459 114.834 26.2801 115.982 26.2801C116.943 26.2801 117.424 26.013 117.424 25.4521C117.424 24.918 116.383 24.5975 115.101 24.277C113.258 23.7695 110.854 22.8615 110.854 20.1373C110.854 18.7485 111.361 17.6801 112.35 16.9056C113.365 16.1311 114.62 15.7572 116.089 15.7572C118.306 15.7572 120.202 16.7721 121.297 18.6149L117.878 20.4578C117.451 19.6832 116.863 19.2826 116.089 19.2826C115.341 19.2826 114.967 19.523 114.967 20.0304Z"
                    fill="#142952"
                  ></path>
                  <path
                    d="M131.363 22.8081L136.357 29.485H131.817L127.544 23.5826V29.485H123.537V10.7895H127.544V21.9801L131.55 16.1311H136.224L131.363 22.8081Z"
                    fill="#142952"
                  ></path>
                  <path
                    d="M141.516 14.2615C140.581 15.1963 139.086 15.1963 138.124 14.2615C137.189 13.3001 137.189 11.8044 138.124 10.8696C139.086 9.90816 140.581 9.90816 141.516 10.8696C142.477 11.8044 142.477 13.3001 141.516 14.2615ZM141.836 29.485H137.83V16.1311H141.836V29.485Z"
                    fill="#142952"
                  ></path>
                  <path
                    d="M148.774 29.485H144.768V9.98828H148.774V29.485Z"
                    fill="#142952"
                  ></path>
                  <path
                    d="M155.712 29.485H151.706V9.98828H155.712V29.485Z"
                    fill="#142952"
                  ></path>
                  <path
                    d="M162.306 20.0304C162.306 20.5646 163.347 20.8584 164.629 21.2056C166.472 21.6062 168.903 22.5677 168.876 25.4788C168.876 26.9211 168.342 28.0161 167.273 28.7639C166.205 29.485 164.896 29.8589 163.321 29.8589C160.516 29.8589 158.593 28.7906 157.578 26.6807L161.05 24.7043C161.398 25.7459 162.172 26.2801 163.321 26.2801C164.282 26.2801 164.763 26.013 164.763 25.4521C164.763 24.918 163.721 24.5975 162.439 24.277C160.596 23.7695 158.193 22.8615 158.193 20.1373C158.193 18.7485 158.7 17.6801 159.688 16.9056C160.703 16.1311 161.958 15.7572 163.427 15.7572C165.644 15.7572 167.54 16.7721 168.635 18.6149L165.217 20.4578C164.79 19.6832 164.202 19.2826 163.427 19.2826C162.68 19.2826 162.306 19.523 162.306 20.0304Z"
                    fill="#142952"
                  ></path>
                  <defs>
                    <linearGradient
                      id="_12_2212__paint0_linear_12_2212"
                      x1="0"
                      y1="19.0771"
                      x2="38.1543"
                      y2="19.0771"
                      gradientUnits="userSpaceOnUse"
                    >
                      <stop stop-color="#73E49A"></stop>
                      <stop offset="0.989583" stop-color="#32C665"></stop>
                    </linearGradient>
                  </defs>
                </svg>