<svg
                  preserveAspectRatio="none"
                  id="Frame_1171275486_1"
                  width="270"
                  height="41"
                  viewBox="0 0 270 41"
                  fill="none"
                  xmlns="http://www.w3.org/2000/svg"
                >
                  <path
                    d="M35.4336 0.136719C36.9361 0.136856 38.1543 1.3549 38.1543 2.85742V35.5703C38.1542 37.0727 36.936 38.2909 35.4336 38.291H2.7207C1.21818 38.291 0.000135775 37.0728 0 35.5703V2.85742C1.96552e-05 1.35483 1.21811 0.136737 2.7207 0.136719H35.4336ZM15.8789 11.2246L12.6562 21.6572L9.91309 11.2881H5L10.2637 28.5156H14.6025L17.9521 18.0195L21.2383 28.5156H25.6094L30.9365 11.2881H26.1191L23.3125 21.6885L20.0576 11.2246H15.8789Z"
                    fill="url(#_1_7269__paint0_linear_1_7269)"
                  ></path>
                  <path
                    d="M55.8026 29.6227H50.9417L45.7871 10.9272H50.274L53.5057 24.0141L57.1112 10.9272H60.5833L64.1888 24.0141L67.4205 10.9272H71.9074L66.7528 29.6227H61.8919L58.8473 18.5924L55.8026 29.6227Z"
                    fill="white"
                  ></path>
                  <path
                    d="M83.4846 27.9668C82.1225 29.3289 80.4399 29.9966 78.4635 29.9966C76.4872 29.9966 74.8046 29.3289 73.4425 27.9668C72.0804 26.6047 71.386 24.9221 71.386 22.9457C71.386 20.9694 72.0804 19.3135 73.4425 17.9514C74.8046 16.5893 76.4872 15.8949 78.4635 15.8949C80.4399 15.8949 82.1225 16.5893 83.4846 17.9514C84.8467 19.3135 85.5411 20.9694 85.5411 22.9457C85.5411 24.9221 84.8467 26.6047 83.4846 27.9668ZM76.2735 25.2159C76.8611 25.8035 77.5822 26.0973 78.4635 26.0973C79.3449 26.0973 80.066 25.8035 80.6536 25.2159C81.2412 24.6283 81.535 23.8805 81.535 22.9457C81.535 22.011 81.2412 21.2632 80.6536 20.6756C80.066 20.088 79.3449 19.7942 78.4635 19.7942C77.5822 19.7942 76.8611 20.088 76.2735 20.6756C75.6859 21.2632 75.3921 22.011 75.3921 22.9457C75.3921 23.8805 75.6859 24.6283 76.2735 25.2159Z"
                    fill="white"
                  ></path>
                  <path
                    d="M91.8133 16.2688V18.6458C92.3207 16.9365 94.0033 16.0017 95.8195 16.0017V20.542C94.8313 20.3818 93.9232 20.542 93.0686 21.0495C92.2406 21.5302 91.8133 22.3849 91.8133 23.5867V29.6227H87.8071V16.2688H91.8133Z"
                    fill="white"
                  ></path>
                  <path
                    d="M105.518 22.9457L110.512 29.6227H105.972L101.698 23.7203V29.6227H97.6922V10.9272H101.698V22.1178L105.705 16.2688H110.378L105.518 22.9457Z"
                    fill="white"
                  ></path>
                  <path
                    d="M114.969 20.1681C114.969 20.7023 116.011 20.9961 117.293 21.3433C119.135 21.7439 121.566 22.7054 121.539 25.6165C121.539 27.0588 121.005 28.1538 119.937 28.9016C118.868 29.6227 117.56 29.9966 115.984 29.9966C113.18 29.9966 111.257 28.9283 110.242 26.8184L113.714 24.842C114.061 25.8836 114.835 26.4178 115.984 26.4178C116.945 26.4178 117.426 26.1507 117.426 25.5898C117.426 25.0557 116.385 24.7352 115.103 24.4147C113.26 23.9072 110.856 22.9992 110.856 20.275C110.856 18.8862 111.363 17.8178 112.352 17.0433C113.367 16.2688 114.622 15.8949 116.091 15.8949C118.307 15.8949 120.204 16.9098 121.299 18.7526L117.88 20.5955C117.453 19.8209 116.865 19.4203 116.091 19.4203C115.343 19.4203 114.969 19.6607 114.969 20.1681Z"
                    fill="white"
                  ></path>
                  <path
                    d="M131.365 22.9457L136.359 29.6227H131.819L127.545 23.7203V29.6227H123.539V10.9272H127.545V22.1178L131.552 16.2688H136.226L131.365 22.9457Z"
                    fill="white"
                  ></path>
                  <path
                    d="M141.518 14.3992C140.583 15.334 139.087 15.334 138.126 14.3992C137.191 13.4378 137.191 11.9421 138.126 11.0073C139.087 10.0459 140.583 10.0459 141.518 11.0073C142.479 11.9421 142.479 13.4378 141.518 14.3992ZM141.838 29.6227H137.832V16.2688H141.838V29.6227Z"
                    fill="white"
                  ></path>
                  <path
                    d="M148.776 29.6227H144.77V10.126H148.776V29.6227Z"
                    fill="white"
                  ></path>
                  <path
                    d="M155.714 29.6227H151.708V10.126H155.714V29.6227Z"
                    fill="white"
                  ></path>
                  <path
                    d="M162.308 20.1681C162.308 20.7023 163.349 20.9961 164.631 21.3433C166.474 21.7439 168.904 22.7054 168.878 25.6165C168.878 27.0588 168.344 28.1538 167.275 28.9016C166.207 29.6227 164.898 29.9966 163.323 29.9966C160.518 29.9966 158.595 28.9283 157.58 26.8184L161.052 24.842C161.4 25.8836 162.174 26.4178 163.323 26.4178C164.284 26.4178 164.765 26.1507 164.765 25.5898C164.765 25.0557 163.723 24.7352 162.441 24.4147C160.598 23.9072 158.195 22.9992 158.195 20.275C158.195 18.8862 158.702 17.8178 159.69 17.0433C160.705 16.2688 161.96 15.8949 163.429 15.8949C165.646 15.8949 167.542 16.9098 168.637 18.7526L165.219 20.5955C164.791 19.8209 164.204 19.4203 163.429 19.4203C162.682 19.4203 162.308 19.6607 162.308 20.1681Z"
                    fill="white"
                  ></path>
                  <defs>
                    <linearGradient
                      id="_1_7269__paint0_linear_1_7269"
                      x1="0"
                      y1="19.2139"
                      x2="38.1543"
                      y2="19.2139"
                      gradientUnits="userSpaceOnUse"
                    >
                      <stop stop-color="#73E49A"></stop>
                      <stop offset="0.989583" stop-color="#32C665"></stop>
                    </linearGradient>
                  </defs>
                </svg>