<svg
                preserveAspectRatio="none"
                id="Group_3"
                class="pointer-events-none"
                width="23"
                height="24"
                viewBox="0 0 23 24"
                fill="none"
                xmlns="http://www.w3.org/2000/svg"
              >
                <path
                  fill-rule="evenodd"
                  clip-rule="evenodd"
                  d="M6.19931 12.7638H6.16331C4.65989 12.745 2.54617 14.6152 1.7936 15.9592C1.0376 17.3135 0.744457 19.0432 1.11474 21.2101C1.32389 22.4358 2.4176 23.1987 3.55246 23.1987H3.96046C5.4416 23.1987 6.33646 21.9472 6.77189 21.0455C6.92274 20.7335 7.63588 20.2021 8.09874 19.9724L8.18446 19.8524L8.14674 19.777C7.47303 18.1398 6.60217 15.5478 6.19931 12.7638ZM15.7685 19.8541L15.8542 19.9724C16.317 20.2021 17.0302 20.7335 17.181 21.0455C17.6165 21.9472 18.5096 23.1987 19.9925 23.1987H20.4005C21.5336 23.1987 22.629 22.4358 22.8382 21.2101C23.2085 19.0432 22.9153 17.3135 22.1576 15.9592C21.4067 14.6135 19.293 12.745 17.7896 12.7638H17.7553C17.3507 15.5478 16.4799 18.1398 15.8045 19.777L15.7685 19.8541Z"
                  fill="#027A48"
                ></path>
                <path
                  fill-rule="evenodd"
                  clip-rule="evenodd"
                  d="M11.668 0.430516C11.8666 0.35389 12.0866 0.35389 12.2852 0.430516C14.4537 1.26537 15.9023 2.65909 16.7903 4.35623C17.668 6.0328 17.98 7.96309 17.9766 9.86766C17.9697 13.6648 16.7097 17.5785 15.8046 19.7762C15.7401 19.9333 15.6303 20.0677 15.4893 20.1623C15.3483 20.2569 15.1824 20.3075 15.0126 20.3077H8.94059C8.77049 20.3078 8.60419 20.2574 8.46285 20.1628C8.3215 20.0681 8.21151 19.9336 8.14688 19.7762C7.24345 17.5785 5.98345 13.6648 5.97659 9.86766C5.97316 7.96309 6.28516 6.0328 7.16288 4.35623C8.05259 2.65909 9.49945 1.26537 11.668 0.430516Z"
                  fill="#6CE9A6"
                ></path>
                <path
                  fill-rule="evenodd"
                  clip-rule="evenodd"
                  d="M6.42673 6.2334C6.23349 6.93452 6.10439 7.65176 6.04102 8.37626H17.909C17.8456 7.65176 17.7165 6.93452 17.5233 6.2334H6.42673ZM13.2616 13.7694C13.2616 13.4284 13.1261 13.1014 12.885 12.8603C12.6439 12.6191 12.3169 12.4837 11.9759 12.4837C11.6349 12.4837 11.3079 12.6191 11.0667 12.8603C10.8256 13.1014 10.6902 13.4284 10.6902 13.7694V22.3408C10.6902 22.6818 10.8256 23.0088 11.0667 23.25C11.3079 23.4911 11.6349 23.6265 11.9759 23.6265C12.3169 23.6265 12.6439 23.4911 12.885 23.25C13.1261 23.0088 13.2616 22.6818 13.2616 22.3408V13.7694Z"
                  fill="#027A48"
                ></path>
              </svg>