<svg
                          preserveAspectRatio="none"
                          id="linkedin_icon_svg"
                          class="pointer-events-none"
                          width="24"
                          height="25"
                          viewBox="0 0 24 25"
                          fill="none"
                          xmlns="http://www.w3.org/2000/svg"
                        >
                          <path
                            d="M18.9908 5.82031H3.84204V20.1275H18.9908V5.82031Z"
                            fill="white"
                          ></path>
                          <path
                            d="M17.4848 18.4787H14.9659V14.5729C14.9659 13.6415 14.9492 12.4426 13.6559 12.4426C12.344 12.4426 12.1432 13.4573 12.1432 14.5051V18.4784H9.62435V10.4465H12.0425V11.5442H12.0763C12.3183 11.1345 12.668 10.7974 13.0882 10.569C13.5083 10.3405 13.9832 10.2291 14.4622 10.2467C17.0152 10.2467 17.4859 11.9094 17.4859 14.0725L17.4848 18.4787ZM6.78224 9.34864C6.49313 9.34869 6.2105 9.26386 5.97009 9.10486C5.72968 8.94587 5.5423 8.71986 5.43162 8.45541C5.32093 8.19097 5.29193 7.89996 5.34828 7.6192C5.40463 7.33843 5.5438 7.08052 5.74819 6.87807C5.95258 6.67562 6.21301 6.53772 6.49655 6.48183C6.78009 6.42593 7.07399 6.45454 7.34111 6.56404C7.60823 6.67354 7.83655 6.859 7.99721 7.09699C8.15787 7.33497 8.24365 7.61479 8.24371 7.90104C8.24374 8.09111 8.20596 8.27932 8.13253 8.45493C8.05911 8.63055 7.95148 8.79012 7.81577 8.92454C7.68006 9.05896 7.51892 9.1656 7.34159 9.23837C7.16426 9.31113 6.97419 9.3486 6.78224 9.34864ZM8.04167 18.4787H5.52018V10.4465H8.04167V18.4787ZM18.7406 4.13787H4.25445C3.92566 4.13419 3.60883 4.25992 3.3736 4.48742C3.13838 4.71491 3.00401 5.02557 3 5.35112V19.7541C3.00388 20.0798 3.13817 20.3906 3.37338 20.6184C3.60859 20.8461 3.92549 20.9721 4.25445 20.9686H18.7406C19.0702 20.9727 19.388 20.8471 19.6241 20.6194C19.8602 20.3916 19.9954 20.0804 20 19.7541V5.35008C19.9953 5.02389 19.86 4.71288 19.6239 4.48538C19.3877 4.25789 19.07 4.13253 18.7406 4.13683"
                            fill="#0A66C2"
                          ></path>
                        </svg>