<svg
                  preserveAspectRatio="none"
                  id="Vector_3"
                  class="pointer-events-none"
                  width="28"
                  height="25"
                  viewBox="0 0 28 25"
                  fill="none"
                  xmlns="http://www.w3.org/2000/svg"
                >
                  <path
                    d="M25.4457 12.1901H21.2223V8.81146C21.2223 6.9479 22.7374 5.43277 24.601 5.43277H25.0233C25.7255 5.43277 26.2903 4.8679 26.2903 4.16577V1.63175C26.2903 0.92962 25.7255 0.364746 25.0233 0.364746H24.601C19.9342 0.364746 16.1543 4.14465 16.1543 8.81146V21.4815C16.1543 22.8805 17.2893 24.0155 18.6883 24.0155H25.4457C26.8446 24.0155 27.9797 22.8805 27.9797 21.4815V14.7242C27.9797 13.3252 26.8446 12.1901 25.4457 12.1901ZM10.2416 12.1901H6.01822V8.81146C6.01822 6.9479 7.53335 5.43277 9.39691 5.43277H9.81924C10.5214 5.43277 11.0862 4.8679 11.0862 4.16577V1.63175C11.0862 0.92962 10.5214 0.364746 9.81924 0.364746H9.39691C4.7301 0.364746 0.950195 4.14465 0.950195 8.81146V21.4815C0.950195 22.8805 2.08522 24.0155 3.48421 24.0155H10.2416C11.6406 24.0155 12.7756 22.8805 12.7756 21.4815V14.7242C12.7756 13.3252 11.6406 12.1901 10.2416 12.1901Z"
                    fill="#4ABB71"
                  ></path>
                </svg>