<svg
                              preserveAspectRatio="none"
                              id="Vector_28"
                              class="pointer-events-none"
                              width="14"
                              height="21"
                              viewBox="0 0 14 21"
                              fill="none"
                              xmlns="http://www.w3.org/2000/svg"
                            >
                              <path
                                d="M0 7.56738C0 3.69739 3.13 0.567383 7 0.567383C10.87 0.567383 14 3.69739 14 7.56738C14 11.7374 9.58 17.4874 7.77 19.6774C7.37 20.1574 6.64 20.1574 6.24 19.6774C4.42 17.4874 0 11.7374 0 7.56738ZM4.5 7.56738C4.5 8.94736 5.62 10.0674 7 10.0674C8.38 10.0674 9.5 8.94736 9.5 7.56738C9.5 6.18738 8.38 5.06738 7 5.06738C5.62 5.06738 4.5 6.18738 4.5 7.56738Z"
                                fill="white"
                              ></path>
                            </svg>