<svg
                    preserveAspectRatio="none"
                    id="Vector_5"
                    class="pointer-events-none"
                    width="24"
                    height="24"
                    viewBox="0 0 24 24"
                    fill="none"
                    xmlns="http://www.w3.org/2000/svg"
                  >
                    <path
                      d="M12.0043 6.57183C10.966 6.57183 9.95094 6.87973 9.08758 7.45661C8.22422 8.03349 7.55132 8.85343 7.15396 9.81274C6.7566 10.7721 6.65263 11.8277 6.8552 12.8461C7.05777 13.8645 7.55779 14.7999 8.29201 15.5341C9.02624 16.2684 9.9617 16.7684 10.9801 16.971C11.9985 17.1735 13.0541 17.0696 14.0134 16.6722C14.9727 16.2748 15.7927 15.6019 16.3695 14.7386C16.9464 13.8752 17.2543 12.8602 17.2543 11.8218C17.2529 10.4299 16.6993 9.09537 15.715 8.11112C14.7308 7.12686 13.3963 6.57328 12.0043 6.57183ZM12.0043 15.3218C11.3121 15.3218 10.6354 15.1166 10.0598 14.732C9.48425 14.3474 9.03565 13.8008 8.77074 13.1612C8.50584 12.5217 8.43653 11.8179 8.57157 11.139C8.70662 10.4601 9.03996 9.83644 9.52945 9.34695C10.0189 8.85747 10.6426 8.52413 11.3215 8.38908C12.0004 8.25403 12.7042 8.32334 13.3437 8.58825C13.9833 8.85316 14.5299 9.30176 14.9145 9.87733C15.2991 10.4529 15.5043 11.1296 15.5043 11.8218C15.5043 12.7501 15.1356 13.6403 14.4792 14.2967C13.8228 14.9531 12.9326 15.3218 12.0043 15.3218ZM21.6293 12.0581C21.6337 11.9006 21.6337 11.7431 21.6293 11.5856L23.2612 9.54683C23.3468 9.43978 23.406 9.31414 23.4341 9.18001C23.4622 9.04589 23.4584 8.90704 23.4231 8.77464C23.1556 7.76905 22.7554 6.80354 22.2331 5.90355C22.1647 5.78577 22.0697 5.68558 21.9558 5.61096C21.8419 5.53633 21.7121 5.48934 21.5768 5.4737L18.9824 5.18495C18.8745 5.0712 18.7652 4.96183 18.6543 4.85683L18.3481 2.25589C18.3323 2.1205 18.2852 1.99066 18.2103 1.87672C18.1355 1.76278 18.0351 1.6679 17.9171 1.59964C17.0168 1.0783 16.0514 0.678521 15.046 0.410734C14.9136 0.375511 14.7747 0.371909 14.6405 0.400216C14.5064 0.428524 14.3808 0.487949 14.2739 0.573702L12.2406 2.19683C12.0831 2.19683 11.9256 2.19683 11.7681 2.19683L9.72932 0.568234C9.62228 0.482668 9.49663 0.423441 9.36251 0.395324C9.22838 0.367207 9.08953 0.370987 8.95714 0.406358C7.9517 0.674357 6.98626 1.07451 6.08604 1.59636C5.96826 1.66475 5.86808 1.75968 5.79345 1.87361C5.71883 1.98754 5.67183 2.11732 5.6562 2.25261L5.36745 4.85136C5.2537 4.96 5.14432 5.06938 5.03932 5.17948L2.43838 5.47808C2.30299 5.49383 2.17315 5.54099 2.05921 5.61581C1.94528 5.69063 1.8504 5.79103 1.78214 5.90902C1.2608 6.80935 0.861016 7.77478 0.593229 8.78011C0.558007 8.91259 0.554404 9.05149 0.582711 9.18562C0.611019 9.31975 0.670444 9.44535 0.756197 9.5523L2.37932 11.5856C2.37932 11.7431 2.37932 11.9006 2.37932 12.0581L0.750729 14.0968C0.665163 14.2039 0.605936 14.3295 0.577819 14.4636C0.549702 14.5978 0.553482 14.7366 0.588854 14.869C0.856373 15.8746 1.25655 16.8401 1.77885 17.7401C1.84724 17.8579 1.94218 17.9581 2.05611 18.0327C2.17004 18.1073 2.29981 18.1543 2.4351 18.17L5.02948 18.4587C5.13812 18.5725 5.2475 18.6818 5.3576 18.7868L5.66057 21.3878C5.67632 21.5232 5.72349 21.653 5.79831 21.7669C5.87313 21.8809 5.97353 21.9758 6.09151 22.044C6.99185 22.5654 7.95727 22.9651 8.9626 23.2329C9.09508 23.2681 9.23399 23.2717 9.36811 23.2434C9.50224 23.2151 9.62784 23.1557 9.73479 23.07L11.7681 21.4468C11.9256 21.4512 12.0831 21.4512 12.2406 21.4468L14.2793 23.0787C14.3864 23.1643 14.512 23.2235 14.6461 23.2516C14.7803 23.2797 14.9191 23.2759 15.0515 23.2406C16.0571 22.9731 17.0226 22.5729 17.9226 22.0506C18.0404 21.9822 18.1406 21.8873 18.2152 21.7733C18.2898 21.6594 18.3368 21.5296 18.3524 21.3943L18.6412 18.8C18.7549 18.692 18.8643 18.5827 18.9693 18.4718L21.5703 18.1656C21.7057 18.1498 21.8355 18.1027 21.9494 18.0278C22.0634 17.953 22.1582 17.8526 22.2265 17.7346C22.7479 16.8343 23.1476 15.8689 23.4154 14.8635C23.4506 14.7311 23.4542 14.5922 23.4259 14.458C23.3976 14.3239 23.3382 14.1983 23.2524 14.0914L21.6293 12.0581ZM19.8684 11.3471C19.887 11.6633 19.887 11.9803 19.8684 12.2965C19.8554 12.513 19.9232 12.7266 20.0587 12.8959L21.6107 14.8351C21.4326 15.4011 21.2046 15.9501 20.9293 16.4757L18.4574 16.7557C18.2422 16.7796 18.0434 16.8825 17.8996 17.0445C17.6891 17.2813 17.4649 17.5055 17.2281 17.716C17.0661 17.8598 16.9632 18.0586 16.9393 18.2739L16.6648 20.7435C16.1392 21.019 15.5902 21.247 15.0242 21.425L13.0839 19.8729C12.9286 19.7489 12.7357 19.6814 12.537 19.6815H12.4845C12.1683 19.7001 11.8513 19.7001 11.5351 19.6815C11.3186 19.6685 11.105 19.7363 10.9357 19.8718L8.99104 21.425C8.42506 21.2469 7.87603 21.0188 7.35042 20.7435L7.07042 18.275C7.04652 18.0597 6.94364 17.8609 6.78167 17.7171C6.54488 17.5066 6.32064 17.2824 6.1101 17.0456C5.96631 16.8836 5.76756 16.7807 5.55229 16.7568L3.0826 16.4812C2.80719 15.9557 2.57915 15.4066 2.4012 14.8406L3.95323 12.9003C4.08875 12.731 4.15657 12.5174 4.14354 12.3009C4.12495 11.9847 4.12495 11.6677 4.14354 11.3515C4.15657 11.135 4.08875 10.9214 3.95323 10.7521L2.4012 8.80855C2.57929 8.24257 2.80732 7.69353 3.0826 7.16792L5.5512 6.88792C5.76646 6.86403 5.96522 6.76114 6.10901 6.59917C6.31955 6.36238 6.54379 6.13814 6.78057 5.92761C6.94319 5.78372 7.04649 5.58451 7.07042 5.3687L7.34495 2.90011C7.8705 2.62469 8.41954 2.39666 8.98557 2.2187L10.9259 3.77073C11.0952 3.90626 11.3088 3.97408 11.5253 3.96105C11.8414 3.94245 12.1585 3.94245 12.4746 3.96105C12.6911 3.97408 12.9047 3.90626 13.074 3.77073L15.0176 2.2187C15.5836 2.39679 16.1326 2.62482 16.6582 2.90011L16.9382 5.3687C16.9621 5.58397 17.065 5.78272 17.227 5.92651C17.4638 6.13705 17.688 6.36129 17.8985 6.59808C18.0423 6.76005 18.2411 6.86293 18.4564 6.88683L20.926 7.16136C21.2015 7.68691 21.4295 8.23595 21.6074 8.80198L20.0554 10.7423C19.9186 10.913 19.8507 11.1288 19.8651 11.3471H19.8684Z"
                      fill="#475467"
                    ></path>
                  </svg>