<svg
                      preserveAspectRatio="none"
                      id="Vector"
                      class="pointer-events-none"
                      width="20"
                      height="19"
                      viewBox="0 0 20 19"
                      fill="none"
                      xmlns="http://www.w3.org/2000/svg"
                    >
                      <path
                        d="M18.9572 3.01765L10.2299 0.108555C10.0806 0.0587858 9.91919 0.0587858 9.76989 0.108555L1.04262 3.01765C0.897808 3.06592 0.771856 3.15854 0.682607 3.28238C0.593358 3.40622 0.545338 3.555 0.545349 3.70765V10.9804C0.545349 11.1733 0.621972 11.3582 0.758362 11.4946C0.894752 11.631 1.07974 11.7076 1.27262 11.7076C1.46551 11.7076 1.65049 11.631 1.78688 11.4946C1.92327 11.3582 1.99989 11.1733 1.99989 10.9804V4.71674L5.05353 5.73401C4.24222 7.04474 3.98423 8.62386 4.3362 10.1246C4.68817 11.6254 5.62134 12.9252 6.9308 13.7386C5.29444 14.3804 3.87989 15.5413 2.84535 17.1286C2.79155 17.2085 2.75417 17.2984 2.7354 17.3929C2.71664 17.4875 2.71685 17.5848 2.73602 17.6792C2.7552 17.7737 2.79296 17.8634 2.84711 17.9431C2.90126 18.0229 2.97071 18.091 3.05144 18.1437C3.13217 18.1964 3.22256 18.2324 3.31736 18.2498C3.41215 18.2673 3.50946 18.2657 3.60364 18.2451C3.69781 18.2246 3.78696 18.1856 3.86591 18.1303C3.94486 18.075 4.01204 18.0046 4.06353 17.9231C5.43353 15.8213 7.59717 14.6167 9.9999 14.6167C12.4026 14.6167 14.5663 15.8213 15.9363 17.9231C16.0429 18.0816 16.2077 18.1918 16.395 18.2298C16.5822 18.2679 16.7769 18.2307 16.937 18.1263C17.097 18.0219 17.2096 17.8587 17.2503 17.672C17.2909 17.4853 17.2565 17.2901 17.1544 17.1286C16.1199 15.5413 14.6999 14.3804 13.069 13.7386C14.3772 12.9252 15.3095 11.6263 15.6614 10.1266C16.0133 8.62694 15.7561 7.0489 14.9463 5.73855L18.9572 4.40219C19.102 4.35394 19.228 4.26134 19.3173 4.1375C19.4066 4.01366 19.4546 3.86486 19.4546 3.71219C19.4546 3.55952 19.4066 3.41073 19.3173 3.28688C19.228 3.16304 19.102 3.07044 18.9572 3.02219V3.01765ZM14.3635 8.79856C14.3637 9.48842 14.2004 10.1685 13.8868 10.783C13.5733 11.3975 13.1185 11.9289 12.5598 12.3336C12.0011 12.7383 11.3545 13.0048 10.6729 13.1112C9.99124 13.2176 9.29411 13.1609 8.63867 12.9457C7.98322 12.7305 7.38814 12.3629 6.90225 11.8732C6.41636 11.3835 6.0535 10.7855 5.84345 10.1284C5.6334 9.47132 5.58214 8.77376 5.69388 8.09301C5.80562 7.41225 6.07717 6.76768 6.48626 6.21219L9.76989 7.3031C9.91919 7.35287 10.0806 7.35287 10.2299 7.3031L13.5135 6.21219C14.0661 6.96128 14.364 7.86774 14.3635 8.79856Z"
                        fill="#48BF84"
                      ></path>
                    </svg>