<svg
              width="40.9756088256836"
              height="40.9756088256836"
              viewBox="0 0 40.9756088256836 40.9756088256836"
              fill="none"
              xmlns="http://www.w3.org/2000/svg"
              xmlns:xlink="http://www.w3.org/1999/xlink"
              preserveAspectRatio="none"
              id="Vector_21"
              class="pointer-events-none"
            >
              <path
                d="M20.4878 40.9756C9.1724 40.9756 0 31.8032 0 20.4878 0 9.1724 9.1724 0 20.4878 0 31.8032 0 40.9756 9.1724 40.9756 20.4878 40.9756 31.8032 31.8032 40.9756 20.4878 40.9756ZM19.5249 13.2556C19.2368 12.9679 18.8462 12.8062 18.439 12.8062 18.0318 12.8062 17.6413 12.9679 17.3532 13.2556L11.2068 19.402C10.9191 19.6901 10.7574 20.0806 10.7574 20.4878 10.7574 20.895 10.9191 21.2855 11.2068 21.5737L17.3532 27.72C17.4938 27.871 17.6635 27.9921 17.852 28.076 18.0405 28.16 18.2439 28.2052 18.4502 28.2088 18.6566 28.2125 18.8615 28.1745 19.0528 28.0972 19.2442 28.0199 19.418 27.9049 19.5639 27.759 19.7098 27.6131 19.8248 27.4393 19.9021 27.248 19.9794 27.0566 20.0173 26.8517 20.0137 26.6454 20.0101 26.4391 19.9649 26.2356 19.8809 26.0471 19.7969 25.8586 19.6758 25.689 19.5249 25.5483L16.001 22.0244H28.6829C29.0905 22.0244 29.4813 21.8625 29.7695 21.5743 30.0576 21.2862 30.2195 20.8953 30.2195 20.4878 30.2195 20.0803 30.0576 19.6894 29.7695 19.4013 29.4813 19.1131 29.0905 18.9512 28.6829 18.9512H16.001L19.5249 15.4273C19.8126 15.1392 19.9743 14.7487 19.9743 14.3415 19.9743 13.9343 19.8126 13.5437 19.5249 13.2556Z"
                id="Vector_22"
              ></path>
            </svg>