<svg
                      width="16.415000915527344"
                      height="19.28499984741211"
                      viewBox="0 0 16.415000915527344 19.28499984741211"
                      fill="none"
                      xmlns="http://www.w3.org/2000/svg"
                      xmlns:xlink="http://www.w3.org/1999/xlink"
                      preserveAspectRatio="none"
                      id="Vector_13"
                      class="pointer-events-none"
                    >
                      <path
                        d="M7 7.91V6.16C6.055 6.16 5.1742 5.9208 4.3575 5.4425 3.5642 4.9758 2.9342 4.3517 2.4675 3.57 1.9892 2.7533 1.75 1.8667 1.75 0.91H0C0 2.1817 0.3208 3.36 0.9625 4.445 1.5808 5.5067 2.415 6.3467 3.465 6.965 4.55 7.595 5.7283 7.91 7 7.91ZM7 8.785C6.055 8.785 5.1742 9.0242 4.3575 9.5025 3.5642 9.9692 2.9342 10.5992 2.4675 11.3925 1.9892 12.2092 1.75 13.0929 1.75 14.0437 1.75 14.9946 1.9892 15.8783 2.4675 16.695 2.9342 17.4767 3.5642 18.1008 4.3575 18.5675 5.1742 19.0458 6.0579 19.285 7.0088 19.285 7.9596 19.285 8.8433 19.0458 9.66 18.5675 10.4417 18.1008 11.0658 17.4767 11.5325 16.695 12.0108 15.8783 12.25 14.9946 12.25 14.0437 12.25 13.0929 12.0108 12.2092 11.5325 11.3925 11.0658 10.5992 10.4417 9.9692 9.66 9.5025 8.8433 9.0242 7.9567 8.785 7 8.785ZM7 10.535C7.63 10.535 8.2133 10.6925 8.75 11.0075 9.2867 11.3225 9.7125 11.7483 10.0275 12.285 10.3425 12.8217 10.5 13.405 10.5 14.035 10.5 14.665 10.3425 15.2483 10.0275 15.785 9.7125 16.3217 9.2867 16.7475 8.75 17.0625 8.2133 17.3775 7.63 17.535 7 17.535 6.37 17.535 5.7867 17.3775 5.25 17.0625 4.7133 16.7475 4.2875 16.3217 3.9725 15.785 3.6575 15.2483 3.5 14.665 3.5 14.035 3.5 13.405 3.6575 12.8217 3.9725 12.285 4.2875 11.7483 4.7133 11.3225 5.25 11.0075 5.7867 10.6925 6.37 10.535 7 10.535ZM12.25 1.3475L9.6775 0 10.1675 2.87 8.085 4.8825 10.9725 5.3025 12.25 7.91 13.545 5.3025 16.415 4.8825 14.3325 2.87 14.8225 0 12.25 1.3475Z"
                        id="Vector_14"
                      ></path>
                    </svg>