<svg
                      preserveAspectRatio="none"
                      id="Vector_1"
                      class="pointer-events-none"
                      width="20"
                      height="17"
                      viewBox="0 0 20 17"
                      fill="none"
                      xmlns="http://www.w3.org/2000/svg"
                    >
                      <path
                        d="M17.9999 0.525757H1.99989C1.61413 0.525757 1.24416 0.679003 0.971376 0.951783C0.698595 1.22456 0.545349 1.59453 0.545349 1.9803V15.0712C0.545349 15.457 0.698595 15.827 0.971376 16.0997C1.24416 16.3725 1.61413 16.5258 1.99989 16.5258H17.9999C18.3857 16.5258 18.7556 16.3725 19.0284 16.0997C19.3012 15.827 19.4544 15.457 19.4544 15.0712V1.9803C19.4544 1.59453 19.3012 1.22456 19.0284 0.951783C18.7556 0.679003 18.3857 0.525757 17.9999 0.525757ZM16.5453 12.8894C16.7382 12.8894 16.9232 12.966 17.0596 13.1024C17.196 13.2388 17.2726 13.4238 17.2726 13.6167C17.2726 13.8096 17.196 13.9945 17.0596 14.1309C16.9232 14.2673 16.7382 14.3439 16.5453 14.3439H3.45444C3.26156 14.3439 3.07657 14.2673 2.94018 14.1309C2.80379 13.9945 2.72717 13.8096 2.72717 13.6167V3.43485C2.72717 3.24196 2.80379 3.05698 2.94018 2.92059C3.07657 2.7842 3.26156 2.70758 3.45444 2.70758C3.64732 2.70758 3.83231 2.7842 3.9687 2.92059C4.10509 3.05698 4.18171 3.24196 4.18171 3.43485V9.15485L7.35262 6.51212C7.47311 6.41171 7.62284 6.35294 7.77947 6.34459C7.93609 6.33623 8.09122 6.37874 8.22171 6.46576L12.1308 9.07394L16.0772 5.78485C16.2254 5.6614 16.4167 5.60192 16.6088 5.61948C16.801 5.63704 16.9783 5.7302 17.1017 5.87848C17.2252 6.02676 17.2846 6.21801 17.2671 6.41015C17.2495 6.60229 17.1564 6.77958 17.0081 6.90303L12.6444 10.5394C12.5239 10.6398 12.3742 10.6986 12.2176 10.7069C12.061 10.7153 11.9058 10.6728 11.7753 10.5858L7.86626 7.97758L4.18171 11.0485V12.8894H16.5453Z"
                        fill="#FFB500"
                      ></path>
                    </svg>