<svg
                              preserveAspectRatio="none"
                              id="Vector_31"
                              class="pointer-events-none"
                              width="18"
                              height="15"
                              viewBox="0 0 18 15"
                              fill="none"
                              xmlns="http://www.w3.org/2000/svg"
                            >
                              <path
                                d="M5.66079 14.9201C12.4536 14.9201 16.1683 9.29693 16.1683 4.42077C16.1683 4.26106 16.165 4.10206 16.1579 3.94379C16.8789 3.42291 17.5057 2.77291 18 2.03296C17.3383 2.32685 16.6262 2.52469 15.8792 2.6139C16.6417 2.15706 17.227 1.43438 17.5032 0.572885C16.7897 0.995555 15.9995 1.30275 15.1582 1.46861C14.4842 0.751355 13.5248 0.302734 12.4625 0.302734C10.4231 0.302734 8.7693 1.95531 8.7693 3.99234C8.7693 4.28191 8.8017 4.56358 8.865 4.83375C5.79571 4.67943 3.07406 3.21105 1.25259 0.978284C0.93543 1.52361 0.75255 2.15707 0.75255 2.83299C0.75255 4.11324 1.40453 5.24344 2.39596 5.90463C1.79007 5.88593 1.22091 5.71973 0.72344 5.44313C0.72289 5.45863 0.72289 5.47373 0.72289 5.49023C0.72289 7.27733 1.99586 8.76943 3.68566 9.10753C3.37534 9.19203 3.04885 9.23743 2.71186 9.23743C2.47427 9.23743 2.24278 9.21403 2.01778 9.17083C2.48794 10.637 3.85128 11.704 5.46763 11.7338C4.20367 12.7237 2.61142 13.3133 0.8809 13.3133C0.58318 13.3133 0.28907 13.2964 0 13.2623C1.63441 14.309 3.57494 14.9201 5.66079 14.9201Z"
                                fill="#1DA1F2"
                              ></path>
                            </svg>