<svg
                                preserveAspectRatio="none"
                                id="Vector_12"
                                class="pointer-events-none"
                                width="18"
                                height="15"
                                viewBox="0 0 18 15"
                                fill="none"
                                xmlns="http://www.w3.org/2000/svg"
                              >
                                <path
                                  d="M5.66079 14.7541C12.4536 14.7541 16.1683 9.13092 16.1683 4.25476C16.1683 4.09505 16.165 3.93605 16.1579 3.77778C16.8789 3.2569 17.5057 2.6069 18 1.86695C17.3383 2.16084 16.6262 2.35868 15.8792 2.44789C16.6417 1.99105 17.227 1.26837 17.5032 0.406869C16.7897 0.829539 15.9995 1.13674 15.1582 1.3026C14.4842 0.585339 13.5248 0.136719 12.4625 0.136719C10.4231 0.136719 8.7693 1.7893 8.7693 3.82633C8.7693 4.1159 8.8017 4.39757 8.865 4.66774C5.79571 4.51342 3.07406 3.04504 1.25259 0.812269C0.93543 1.3576 0.75255 1.99106 0.75255 2.66698C0.75255 3.94723 1.40453 5.07743 2.39596 5.73862C1.79007 5.71992 1.22091 5.55372 0.72344 5.27712C0.72289 5.29262 0.72289 5.30772 0.72289 5.32422C0.72289 7.11132 1.99586 8.60342 3.68566 8.94152C3.37534 9.02602 3.04885 9.07142 2.71186 9.07142C2.47427 9.07142 2.24278 9.04802 2.01778 9.00482C2.48794 10.471 3.85128 11.538 5.46763 11.5678C4.20367 12.5577 2.61142 13.1473 0.8809 13.1473C0.58318 13.1473 0.28907 13.1304 0 13.0963C1.63441 14.143 3.57494 14.7541 5.66079 14.7541Z"
                                  fill="#1DA1F2"
                                ></path>
                              </svg>