<svg
                      preserveAspectRatio="none"
                      id="Vector_0"
                      class="pointer-events-none"
                      width="20"
                      height="18"
                      viewBox="0 0 20 18"
                      fill="none"
                      xmlns="http://www.w3.org/2000/svg"
                    >
                      <path
                        d="M12.1817 8.07123C12.1817 8.26411 12.1051 8.4491 11.9687 8.58549C11.8323 8.72188 11.6473 8.7985 11.4544 8.7985H8.54535C8.35246 8.7985 8.16748 8.72188 8.03109 8.58549C7.8947 8.4491 7.81808 8.26411 7.81808 8.07123C7.81808 7.87834 7.8947 7.69336 8.03109 7.55697C8.16748 7.42058 8.35246 7.34396 8.54535 7.34396H11.4544C11.6473 7.34396 11.8323 7.42058 11.9687 7.55697C12.1051 7.69336 12.1817 7.87834 12.1817 8.07123ZM19.4544 4.43486V16.0712C19.4544 16.457 19.3012 16.827 19.0284 17.0997C18.7556 17.3725 18.3857 17.5258 17.9999 17.5258H1.99989C1.61413 17.5258 1.24416 17.3725 0.971376 17.0997C0.698595 16.827 0.545349 16.457 0.545349 16.0712V4.43486C0.545349 4.0491 0.698595 3.67913 0.971376 3.40635C1.24416 3.13357 1.61413 2.98032 1.99989 2.98032H5.63626V2.25305C5.63626 1.67439 5.86613 1.11944 6.2753 0.710268C6.68447 0.301098 7.23942 0.071228 7.81808 0.071228H12.1817C12.7604 0.071228 13.3153 0.301098 13.7245 0.710268C14.1337 1.11944 14.3635 1.67439 14.3635 2.25305V2.98032H17.9999C18.3857 2.98032 18.7556 3.13357 19.0284 3.40635C19.3012 3.67913 19.4544 4.0491 19.4544 4.43486ZM7.0908 2.98032H12.909V2.25305C12.909 2.06016 12.8324 1.87518 12.696 1.73879C12.5596 1.6024 12.3746 1.52577 12.1817 1.52577H7.81808C7.62519 1.52577 7.44021 1.6024 7.30382 1.73879C7.16743 1.87518 7.0908 2.06016 7.0908 2.25305V2.98032ZM17.9999 8.21759V4.43486H1.99989V8.21759C4.45464 9.55375 7.20506 10.2535 9.99989 10.253C12.7947 10.2535 15.5451 9.55375 17.9999 8.21759Z"
                        fill="#F65656"
                      ></path>
                    </svg>