<svg
                                preserveAspectRatio="none"
                                id="Vector_9"
                                class="pointer-events-none"
                                width="14"
                                height="20"
                                viewBox="0 0 14 20"
                                fill="none"
                                xmlns="http://www.w3.org/2000/svg"
                              >
                                <path
                                  d="M0 7.40137C0 3.53138 3.13 0.401367 7 0.401367C10.87 0.401367 14 3.53138 14 7.40137C14 11.5713 9.58 17.3213 7.77 19.5113C7.37 19.9913 6.64 19.9913 6.24 19.5113C4.42 17.3213 0 11.5713 0 7.40137ZM4.5 7.40137C4.5 8.78135 5.62 9.90135 7 9.90135C8.38 9.90135 9.5 8.78135 9.5 7.40137C9.5 6.02137 8.38 4.90137 7 4.90137C5.62 4.90137 4.5 6.02137 4.5 7.40137Z"
                                  fill="white"
                                ></path>
                              </svg>