<svg
                    preserveAspectRatio="none"
                    id="Vector_4"
                    class="pointer-events-none"
                    width="24"
                    height="20"
                    viewBox="0 0 24 20"
                    fill="none"
                    xmlns="http://www.w3.org/2000/svg"
                  >
                    <path
                      d="M21.6254 0.190186H2.37543C1.9113 0.190186 1.46618 0.37456 1.13799 0.702749C0.809802 1.03094 0.625427 1.47606 0.625427 1.94019V17.6902C0.625427 18.1543 0.809802 18.5994 1.13799 18.9276C1.46618 19.2558 1.9113 19.4402 2.37543 19.4402H3.83996C4.00556 19.4402 4.16778 19.3933 4.30776 19.3048C4.44774 19.2163 4.55974 19.0899 4.63074 18.9403C5.05623 18.042 5.728 17.2829 6.56793 16.7514C7.40786 16.2198 8.38143 15.9377 9.37543 15.9377C10.3694 15.9377 11.343 16.2198 12.1829 16.7514C13.0229 17.2829 13.6946 18.042 14.1201 18.9403C14.1911 19.0899 14.3031 19.2163 14.4431 19.3048C14.5831 19.3933 14.7453 19.4402 14.9109 19.4402H21.6254C22.0896 19.4402 22.5347 19.2558 22.8629 18.9276C23.1911 18.5994 23.3754 18.1543 23.3754 17.6902V1.94019C23.3754 1.47606 23.1911 1.03094 22.8629 0.702749C22.5347 0.37456 22.0896 0.190186 21.6254 0.190186ZM6.75043 11.5652C6.75043 11.046 6.90438 10.5385 7.19282 10.1068C7.48126 9.67514 7.89123 9.33868 8.37088 9.14C8.85054 8.94132 9.37834 8.88934 9.88754 8.99062C10.3967 9.09191 10.8645 9.34192 11.2316 9.70903C11.5987 10.0761 11.8487 10.5439 11.95 11.0531C12.0513 11.5623 11.9993 12.0901 11.8006 12.5697C11.6019 13.0494 11.2655 13.4594 10.8338 13.7478C10.4021 14.0362 9.8946 14.1902 9.37543 14.1902C8.67923 14.1902 8.01155 13.9136 7.51927 13.4213C7.02699 12.9291 6.75043 12.2614 6.75043 11.5652ZM21.6254 17.6902H15.4381C14.7074 16.4339 13.6059 15.4345 12.2848 14.8289C12.9472 14.2392 13.4146 13.462 13.6253 12.6005C13.8359 11.739 13.7797 10.8338 13.4642 10.005C13.1486 9.17611 12.5887 8.46273 11.8584 7.95938C11.1282 7.45603 10.2623 7.1865 9.37543 7.1865C8.48855 7.1865 7.62261 7.45603 6.8924 7.95938C6.1622 8.46273 5.60222 9.17611 5.28668 10.005C4.97115 10.8338 4.91497 11.739 5.12559 12.6005C5.33622 13.462 5.80369 14.2392 6.46605 14.8289C5.14492 15.4345 4.04347 16.4339 3.31277 17.6902H2.37543V1.94019H21.6254V17.6902ZM4.12543 6.31519V4.56519C4.12543 4.33312 4.21761 4.11056 4.38171 3.94647C4.5458 3.78237 4.76836 3.69019 5.00043 3.69019H19.0004C19.2325 3.69019 19.4551 3.78237 19.6191 3.94647C19.7832 4.11056 19.8754 4.33312 19.8754 4.56519V15.0652C19.8754 15.2972 19.7832 15.5198 19.6191 15.6839C19.4551 15.848 19.2325 15.9402 19.0004 15.9402H17.2504C17.0184 15.9402 16.7958 15.848 16.6317 15.6839C16.4676 15.5198 16.3754 15.2972 16.3754 15.0652C16.3754 14.8331 16.4676 14.6106 16.6317 14.4465C16.7958 14.2824 17.0184 14.1902 17.2504 14.1902H18.1254V5.44019H5.87543V6.31519C5.87543 6.54725 5.78324 6.76981 5.61915 6.9339C5.45505 7.098 5.23249 7.19019 5.00043 7.19019C4.76836 7.19019 4.5458 7.098 4.38171 6.9339C4.21761 6.76981 4.12543 6.54725 4.12543 6.31519Z"
                      fill="#475467"
                    ></path>
                  </svg>