<svg
                      preserveAspectRatio="none"
                      id="Vector_24"
                      class="pointer-events-none"
                      width="31"
                      height="31"
                      viewBox="0 0 31 31"
                      fill="none"
                      xmlns="http://www.w3.org/2000/svg"
                    >
                      <path
                        d="M15.3929 8.85947C14.0292 8.85947 12.6961 9.26387 11.5622 10.0215C10.4283 10.7792 9.54452 11.856 9.02264 13.116C8.50076 14.3759 8.36422 15.7623 8.63027 17.0998C8.89632 18.4373 9.55302 19.666 10.5173 20.6303C11.4816 21.5946 12.7102 22.2513 14.0478 22.5173C15.3853 22.7834 16.7717 22.6468 18.0316 22.1249C19.2915 21.6031 20.3684 20.7193 21.1261 19.5854C21.8837 18.4515 22.2881 17.1184 22.2881 15.7546C22.2862 13.9265 21.5591 12.1738 20.2665 10.8811C18.9738 9.58844 17.2211 8.86137 15.3929 8.85947ZM15.3929 20.3514C14.4838 20.3514 13.595 20.0818 12.8391 19.5767C12.0832 19.0716 11.494 18.3537 11.1461 17.5137C10.7982 16.6738 10.7071 15.7495 10.8845 14.8579C11.0619 13.9662 11.4997 13.1471 12.1425 12.5042C12.7854 11.8614 13.6045 11.4236 14.4962 11.2462C15.3878 11.0688 16.3121 11.1599 17.1521 11.5078C17.992 11.8557 18.7099 12.4449 19.215 13.2008C19.7201 13.9567 19.9897 14.8455 19.9897 15.7546C19.9897 16.9738 19.5054 18.143 18.6434 19.0051C17.7813 19.8671 16.6121 20.3514 15.3929 20.3514ZM28.0341 16.0649C28.0398 15.8581 28.0398 15.6512 28.0341 15.4444L30.1773 12.7667C30.2897 12.6261 30.3675 12.4611 30.4044 12.285C30.4413 12.1088 30.4364 11.9265 30.3899 11.7526C30.0386 10.4319 29.513 9.16379 28.827 7.98178C28.7372 7.82709 28.6125 7.69551 28.4629 7.5975C28.3133 7.49949 28.1428 7.43777 27.9651 7.41723L24.5578 7.038C24.416 6.88861 24.2724 6.74496 24.1268 6.60705L23.7246 3.19107C23.7039 3.01325 23.642 2.84272 23.5437 2.69308C23.4454 2.54344 23.3136 2.41883 23.1586 2.32918C21.9762 1.64447 20.7082 1.11941 19.3878 0.767709C19.2138 0.72145 19.0314 0.716718 18.8552 0.753896C18.6791 0.791074 18.5141 0.869121 18.3737 0.981746L15.7032 3.1135C15.4964 3.1135 15.2895 3.1135 15.0827 3.1135L12.405 0.974564C12.2645 0.862185 12.0994 0.784398 11.9233 0.747471C11.7471 0.710543 11.5648 0.715507 11.3909 0.761963C10.0704 1.11394 8.80239 1.63949 7.62008 2.32487C7.4654 2.41469 7.33381 2.53937 7.23581 2.689C7.1378 2.83863 7.07607 3.00907 7.05554 3.18676L6.67631 6.59987C6.52691 6.74256 6.38326 6.88621 6.24536 7.03082L2.82938 7.42298C2.65156 7.44367 2.48103 7.50561 2.33139 7.60388C2.18175 7.70214 2.05714 7.83401 1.96748 7.98896C1.28277 9.17143 0.757718 10.4394 0.406015 11.7598C0.359755 11.9337 0.355024 12.1162 0.392202 12.2923C0.42938 12.4685 0.507427 12.6335 0.620052 12.7739L2.75181 15.4444C2.75181 15.6512 2.75181 15.8581 2.75181 16.0649L0.61287 18.7425C0.500491 18.8831 0.422704 19.0481 0.385776 19.2243C0.348849 19.4005 0.353813 19.5828 0.400269 19.7567C0.75162 21.0774 1.2772 22.3455 1.96317 23.5275C2.05299 23.6822 2.17768 23.8138 2.32731 23.9118C2.47694 24.0098 2.64738 24.0715 2.82507 24.092L6.23243 24.4713C6.37512 24.6207 6.51877 24.7643 6.66338 24.9022L7.06129 28.3182C7.08197 28.496 7.14392 28.6666 7.24218 28.8162C7.34045 28.9658 7.47231 29.0904 7.62726 29.1801C8.80973 29.8648 10.0777 30.3899 11.3981 30.7416C11.5721 30.7878 11.7545 30.7926 11.9306 30.7554C12.1068 30.7182 12.2718 30.6402 12.4122 30.5275L15.0827 28.3958C15.2895 28.4015 15.4964 28.4015 15.7032 28.3958L18.3808 30.539C18.5214 30.6514 18.6865 30.7292 18.8626 30.7661C19.0388 30.803 19.2211 30.7981 19.395 30.7516C20.7157 30.4003 21.9838 29.8747 23.1658 29.1887C23.3205 29.0989 23.4521 28.9742 23.5501 28.8246C23.6481 28.675 23.7098 28.5045 23.7303 28.3268L24.1096 24.9195C24.259 24.7777 24.4026 24.6341 24.5405 24.4885L27.9565 24.0863C28.1343 24.0656 28.3049 24.0037 28.4545 23.9054C28.6041 23.8071 28.7288 23.6753 28.8184 23.5203C29.5031 22.3378 30.0282 21.0699 30.3799 19.7495C30.4261 19.5755 30.4309 19.3931 30.3937 19.2169C30.3565 19.0408 30.2785 18.8758 30.1658 18.7354L28.0341 16.0649ZM25.7213 15.1312C25.7457 15.5465 25.7457 15.9628 25.7213 16.3781C25.7042 16.6624 25.7933 16.9429 25.9713 17.1653L28.0097 19.7122C27.7758 20.4555 27.4763 21.1766 27.1147 21.8669L23.8683 22.2347C23.5855 22.266 23.3245 22.4012 23.1356 22.6139C22.8591 22.9249 22.5646 23.2194 22.2536 23.4959C22.0409 23.6847 21.9058 23.9458 21.8744 24.2285L21.5138 27.4721C20.8236 27.8338 20.1025 28.1333 19.3591 28.367L16.8108 26.3287C16.6068 26.1657 16.3535 26.0771 16.0925 26.0773H16.0236C15.6083 26.1017 15.192 26.1017 14.7767 26.0773C14.4924 26.0602 14.2119 26.1492 13.9895 26.3272L11.4354 28.367C10.6921 28.1331 9.97099 27.8337 9.28067 27.4721L8.91292 24.2299C8.88154 23.9472 8.74642 23.6862 8.53369 23.4973C8.2227 23.2208 7.9282 22.9263 7.65168 22.6153C7.46283 22.4026 7.2018 22.2675 6.91907 22.2361L3.67547 21.8741C3.31375 21.1839 3.01426 20.4628 2.78054 19.7194L4.81892 17.171C4.99691 16.9487 5.08598 16.6681 5.06887 16.3838C5.04445 15.9686 5.04445 15.5522 5.06887 15.1369C5.08598 14.8526 4.99691 14.5721 4.81892 14.3497L2.78054 11.7971C3.01443 11.0538 3.31392 10.3327 3.67547 9.64236L6.91764 9.27462C7.20036 9.24324 7.4614 9.10811 7.65025 8.89539C7.92676 8.5844 8.22127 8.28989 8.53225 8.01338C8.74583 7.8244 8.88151 7.56277 8.91292 7.27933L9.27349 4.03717C9.96372 3.67545 10.6848 3.37595 11.4282 3.14223L13.9766 5.18061C14.1989 5.3586 14.4795 5.44768 14.7638 5.43056C15.179 5.40615 15.5954 5.40615 16.0106 5.43056C16.2949 5.44768 16.5755 5.3586 16.7978 5.18061L19.3505 3.14223C20.0938 3.37613 20.8149 3.67562 21.5052 4.03717L21.873 7.27933C21.9043 7.56205 22.0395 7.82309 22.2522 8.01194C22.5632 8.28845 22.8577 8.58296 23.1342 8.89395C23.3231 9.10668 23.5841 9.2418 23.8668 9.27318L27.1104 9.63374C27.4721 10.324 27.7716 11.0451 28.0054 11.7885L25.967 14.3368C25.7873 14.5611 25.6981 14.8445 25.717 15.1312H25.7213Z"
                        fill="#475467"
                      ></path>
                    </svg>