<svg
                      preserveAspectRatio="none"
                      id="Vector_23"
                      class="pointer-events-none"
                      width="31"
                      height="26"
                      viewBox="0 0 31 26"
                      fill="none"
                      xmlns="http://www.w3.org/2000/svg"
                    >
                      <path
                        d="M28.0299 0.620972H2.74761C2.13804 0.620972 1.55343 0.863123 1.1224 1.29415C0.69137 1.72519 0.449219 2.30979 0.449219 2.91936V23.6049C0.449219 24.2144 0.69137 24.799 1.1224 25.2301C1.55343 25.6611 2.13804 25.9032 2.74761 25.9032H4.67107C4.88857 25.9033 5.10162 25.8417 5.28546 25.7255C5.46931 25.6093 5.6164 25.4433 5.70966 25.2468C6.26848 24.0669 7.15076 23.07 8.25389 22.3719C9.35703 21.6738 10.6357 21.3032 11.9412 21.3032C13.2466 21.3032 14.5253 21.6738 15.6284 22.3719C16.7316 23.07 17.6138 24.0669 18.1727 25.2468C18.2659 25.4433 18.413 25.6093 18.5969 25.7255C18.7807 25.8417 18.9938 25.9033 19.2113 25.9032H28.0299C28.6395 25.9032 29.2241 25.6611 29.6551 25.2301C30.0861 24.799 30.3283 24.2144 30.3283 23.6049V2.91936C30.3283 2.30979 30.0861 1.72519 29.6551 1.29415C29.2241 0.863123 28.6395 0.620972 28.0299 0.620972ZM8.49358 15.5605C8.49358 14.8786 8.69578 14.2121 9.0746 13.6451C9.45343 13.0782 9.99187 12.6363 10.6218 12.3753C11.2518 12.1144 11.945 12.0461 12.6138 12.1792C13.2825 12.3122 13.8968 12.6405 14.379 13.1227C14.8611 13.6048 15.1895 14.2191 15.3225 14.8879C15.4555 15.5567 15.3873 16.2499 15.1263 16.8798C14.8654 17.5098 14.4235 18.0482 13.8565 18.4271C13.2896 18.8059 12.623 19.0081 11.9412 19.0081C11.0268 19.0081 10.1499 18.6449 9.50335 17.9983C8.8568 17.3518 8.49358 16.4749 8.49358 15.5605ZM28.0299 23.6049H19.9036C18.944 21.9549 17.4974 20.6423 15.7622 19.847C16.6322 19.0724 17.2461 18.0517 17.5227 16.9202C17.7994 15.7888 17.7256 14.5999 17.3112 13.5114C16.8968 12.4228 16.1613 11.4858 15.2023 10.8248C14.2433 10.1637 13.106 9.80968 11.9412 9.80968C10.7764 9.80968 9.63907 10.1637 8.68005 10.8248C7.72102 11.4858 6.98556 12.4228 6.57115 13.5114C6.15674 14.5999 6.08295 15.7888 6.35958 16.9202C6.6362 18.0517 7.25017 19.0724 8.12009 19.847C6.38496 20.6423 4.93835 21.9549 3.97868 23.6049H2.74761V2.91936H28.0299V23.6049ZM5.046 8.66533V6.36694C5.046 6.06216 5.16707 5.76986 5.38259 5.55434C5.5981 5.33882 5.8904 5.21775 6.19519 5.21775H24.5823C24.8871 5.21775 25.1794 5.33882 25.3949 5.55434C25.6104 5.76986 25.7315 6.06216 25.7315 6.36694V20.1573C25.7315 20.4621 25.6104 20.7544 25.3949 20.9699C25.1794 21.1854 24.8871 21.3065 24.5823 21.3065H22.2839C21.9791 21.3065 21.6868 21.1854 21.4713 20.9699C21.2558 20.7544 21.1347 20.4621 21.1347 20.1573C21.1347 19.8525 21.2558 19.5602 21.4713 19.3447C21.6868 19.1292 21.9791 19.0081 22.2839 19.0081H23.4331V7.51614H7.34438V8.66533C7.34438 8.97012 7.22331 9.26242 7.00779 9.47793C6.79228 9.69345 6.49998 9.81453 6.19519 9.81453C5.8904 9.81453 5.5981 9.69345 5.38259 9.47793C5.16707 9.26242 5.046 8.97012 5.046 8.66533Z"
                        fill="#475467"
                      ></path>
                    </svg>