<svg
                      preserveAspectRatio="none"
                      id="Vector_25"
                      class="pointer-events-none"
                      width="27"
                      height="31"
                      viewBox="0 0 27 31"
                      fill="none"
                      xmlns="http://www.w3.org/2000/svg"
                    >
                      <path
                        d="M25.6942 6.37581L19.9482 0.629841C19.8414 0.523156 19.7146 0.438559 19.5751 0.380884C19.4356 0.323208 19.2861 0.293583 19.1352 0.293702H7.64321C7.03364 0.293702 6.44904 0.535852 6.01801 0.966884C5.58698 1.39792 5.34482 1.98252 5.34482 2.59209V4.89048H3.04644C2.43686 4.89048 1.85226 5.13263 1.42123 5.56366C0.990198 5.99469 0.748047 6.5793 0.748047 7.18887V27.8744C0.748047 28.4839 0.990198 29.0685 1.42123 29.4996C1.85226 29.9306 2.43686 30.1728 3.04644 30.1728H19.1352C19.7447 30.1728 20.3293 29.9306 20.7604 29.4996C21.1914 29.0685 21.4335 28.4839 21.4335 27.8744V25.576H23.7319C24.3415 25.576 24.9261 25.3338 25.3571 24.9028C25.7882 24.4718 26.0303 23.8872 26.0303 23.2776V7.18887C26.0304 7.03791 26.0008 6.88841 25.9431 6.7489C25.8855 6.60939 25.8009 6.48261 25.6942 6.37581ZM19.1352 27.8744H3.04644V7.18887H14.0629L19.1352 12.2611V24.4038C19.1352 24.4124 19.1352 24.4196 19.1352 24.4268C19.1352 24.434 19.1352 24.4411 19.1352 24.4498V27.8744ZM23.7319 23.2776H21.4335V11.7856C21.4337 11.6347 21.404 11.4852 21.3464 11.3457C21.2887 11.2062 21.2041 11.0794 21.0974 10.9726L15.3514 5.22662C15.2446 5.11993 15.1179 5.03534 14.9783 4.97766C14.8388 4.91998 14.6893 4.89036 14.5384 4.89048H7.64321V2.59209H18.6597L23.7319 7.66435V23.2776ZM15.6876 18.6808C15.6876 18.9856 15.5665 19.2779 15.351 19.4934C15.1355 19.7089 14.8432 19.83 14.5384 19.83H7.64321C7.33843 19.83 7.04613 19.7089 6.83061 19.4934C6.61509 19.2779 6.49402 18.9856 6.49402 18.6808C6.49402 18.376 6.61509 18.0837 6.83061 17.8682C7.04613 17.6527 7.33843 17.5316 7.64321 17.5316H14.5384C14.8432 17.5316 15.1355 17.6527 15.351 17.8682C15.5665 18.0837 15.6876 18.376 15.6876 18.6808ZM15.6876 23.2776C15.6876 23.5824 15.5665 23.8747 15.351 24.0902C15.1355 24.3057 14.8432 24.4268 14.5384 24.4268H7.64321C7.33843 24.4268 7.04613 24.3057 6.83061 24.0902C6.61509 23.8747 6.49402 23.5824 6.49402 23.2776C6.49402 22.9728 6.61509 22.6805 6.83061 22.465C7.04613 22.2495 7.33843 22.1284 7.64321 22.1284H14.5384C14.8432 22.1284 15.1355 22.2495 15.351 22.465C15.5665 22.6805 15.6876 22.9728 15.6876 23.2776Z"
                        fill="#475467"
                      ></path>
                    </svg>