<svg
                  preserveAspectRatio="none"
                  id="Vector_2"
                  class="pointer-events-none"
                  width="28"
                  height="25"
                  viewBox="0 0 28 25"
                  fill="none"
                  xmlns="http://www.w3.org/2000/svg"
                >
                  <path
                    d="M25.4477 12.6811H21.2244V9.30242C21.2244 7.43887 22.7395 5.92374 24.6031 5.92374H25.0254C25.7275 5.92374 26.2924 5.35887 26.2924 4.65673V2.12272C26.2924 1.42059 25.7275 0.855713 25.0254 0.855713H24.6031C19.9363 0.855713 16.1564 4.63562 16.1564 9.30242V21.9725C16.1564 23.3715 17.2914 24.5065 18.6904 24.5065H25.4477C26.8467 24.5065 27.9817 23.3715 27.9817 21.9725V15.2151C27.9817 13.8161 26.8467 12.6811 25.4477 12.6811ZM10.2437 12.6811H6.0203V9.30242C6.0203 7.43887 7.53543 5.92374 9.39898 5.92374H9.82132C10.5235 5.92374 11.0883 5.35887 11.0883 4.65673V2.12272C11.0883 1.42059 10.5235 0.855713 9.82132 0.855713H9.39898C4.73217 0.855713 0.952271 4.63562 0.952271 9.30242V21.9725C0.952271 23.3715 2.0873 24.5065 3.48628 24.5065H10.2437C11.6426 24.5065 12.7777 23.3715 12.7777 21.9725V15.2151C12.7777 13.8161 11.6426 12.6811 10.2437 12.6811Z"
                    fill="#4ABB71"
                  ></path>
                </svg>