<svg
                    preserveAspectRatio="none"
                    id="Vector_6"
                    class="pointer-events-none"
                    width="20"
                    height="24"
                    viewBox="0 0 20 24"
                    fill="none"
                    xmlns="http://www.w3.org/2000/svg"
                  >
                    <path
                      d="M19.3705 5.07308L14.9955 0.698076C14.9142 0.616846 14.8177 0.552434 14.7115 0.50852C14.6052 0.464605 14.4914 0.442049 14.3765 0.442139H5.62646C5.16234 0.442139 4.71722 0.626513 4.38903 0.954702C4.06084 1.28289 3.87646 1.72801 3.87646 2.19214V3.94214H2.12646C1.66234 3.94214 1.21722 4.12651 0.889028 4.4547C0.560839 4.78289 0.376465 5.22801 0.376465 5.69214V21.4421C0.376465 21.9063 0.560839 22.3514 0.889028 22.6796C1.21722 23.0078 1.66234 23.1921 2.12646 23.1921H14.3765C14.8406 23.1921 15.2857 23.0078 15.6139 22.6796C15.9421 22.3514 16.1265 21.9063 16.1265 21.4421V19.6921H17.8765C18.3406 19.6921 18.7857 19.5078 19.1139 19.1796C19.4421 18.8514 19.6265 18.4063 19.6265 17.9421V5.69214C19.6266 5.5772 19.604 5.46337 19.5601 5.35715C19.5162 5.25093 19.4518 5.1544 19.3705 5.07308ZM14.3765 21.4421H2.12646V5.69214H10.5144L14.3765 9.55417V18.7996C14.3765 18.8062 14.3765 18.8117 14.3765 18.8171C14.3765 18.8226 14.3765 18.8281 14.3765 18.8346V21.4421ZM17.8765 17.9421H16.1265V9.19214C16.1266 9.0772 16.104 8.96337 16.0601 8.85715C16.0162 8.75092 15.9518 8.6544 15.8705 8.57308L11.4955 4.19808C11.4142 4.11685 11.3177 4.05243 11.2115 4.00852C11.1052 3.9646 10.9914 3.94205 10.8765 3.94214H5.62646V2.19214H14.0144L17.8765 6.05417V17.9421ZM11.7515 14.4421C11.7515 14.6742 11.6593 14.8968 11.4952 15.0609C11.3311 15.225 11.1085 15.3171 10.8765 15.3171H5.62646C5.3944 15.3171 5.17184 15.225 5.00775 15.0609C4.84365 14.8968 4.75146 14.6742 4.75146 14.4421C4.75146 14.2101 4.84365 13.9875 5.00775 13.8234C5.17184 13.6593 5.3944 13.5671 5.62646 13.5671H10.8765C11.1085 13.5671 11.3311 13.6593 11.4952 13.8234C11.6593 13.9875 11.7515 14.2101 11.7515 14.4421ZM11.7515 17.9421C11.7515 18.1742 11.6593 18.3968 11.4952 18.5609C11.3311 18.725 11.1085 18.8171 10.8765 18.8171H5.62646C5.3944 18.8171 5.17184 18.725 5.00775 18.5609C4.84365 18.3968 4.75146 18.1742 4.75146 17.9421C4.75146 17.7101 4.84365 17.4875 5.00775 17.3234C5.17184 17.1593 5.3944 17.0671 5.62646 17.0671H10.8765C11.1085 17.0671 11.3311 17.1593 11.4952 17.3234C11.6593 17.4875 11.7515 17.7101 11.7515 17.9421Z"
                      fill="#475467"
                    ></path>
                  </svg>