<svg
                                  preserveAspectRatio="none"
                                  id="Vertical_container_29"
                                  class="pointer-events-none"
                                  width="18"
                                  height="19"
                                  viewBox="0 0 18 19"
                                  fill="none"
                                  xmlns="http://www.w3.org/2000/svg"
                                >
                                  <mask
                                    id="_1_6962__mask0_1_6962"
                                    style="mask-type: luminance"
                                    maskUnits="userSpaceOnUse"
                                    x="0"
                                    y="0"
                                    width="18"
                                    height="19"
                                  >
                                    <path
                                      d="M18 0.453125H0V18.4531H18V0.453125Z"
                                      fill="white"
                                    ></path>
                                  </mask>
                                  <g mask="url(#_1_6962__mask0_1_6962)">
                                    <path
                                      d="M15.3087 3.0689C13.6241 1.38307 11.384 0.454154 8.99731 0.453125C4.07922 0.453125 0.0768773 4.45418 0.0749085 9.37206C0.0743354 10.9441 0.485083 12.4786 1.2658 13.8312L0 18.4531L4.72987 17.2129C6.03304 17.9236 7.50032 18.2981 8.99348 18.2987H8.99727C13.9145 18.2987 17.9176 14.2969 17.9196 9.37928C17.9205 6.99585 16.9932 4.75484 15.3087 3.0689ZM8.99731 16.7922H8.99442C7.66349 16.7915 6.35834 16.4342 5.21993 15.7587L4.94901 15.5981L2.14221 16.334L2.89159 13.5984L2.71507 13.3179C1.97267 12.1375 1.58075 10.7733 1.58131 9.37263C1.58294 5.28505 4.90953 1.95963 9.00012 1.95963C10.981 1.96045 12.8428 2.73257 14.243 4.13377C15.6432 5.53497 16.4137 7.39766 16.4131 9.37866C16.4114 13.4663 13.0847 16.7922 8.99731 16.7922Z"
                                      fill="#E0E0E0"
                                    ></path>
                                    <path
                                      d="M0.410156 17.9401L1.61814 13.5294C0.87289 12.2385 0.48098 10.7739 0.48145 9.27401C0.483404 4.58088 4.30296 0.762695 8.99599 0.762695C11.2738 0.763724 13.4116 1.65016 15.0189 3.25902C16.6266 4.86786 17.5115 7.00636 17.5105 9.28067C17.5086 13.9739 13.6888 17.7925 8.99632 17.7925C8.99599 17.7925 8.99656 17.7925 8.99632 17.7925H8.99253C7.56758 17.792 6.16744 17.4343 4.92388 16.7566L0.410156 17.9401Z"
                                      fill="url(#_1_6962__paint0_linear_1_6962)"
                                    ></path>
                                    <path
                                      fill-rule="evenodd"
                                      clip-rule="evenodd"
                                      d="M6.79288 5.58517C6.62782 5.21816 6.45402 5.21082 6.29698 5.2044C6.16853 5.19889 6.02147 5.19922 5.87466 5.19922C5.72772 5.19922 5.48895 5.25444 5.28702 5.47497C5.08499 5.69549 4.51562 6.22859 4.51562 7.31282C4.51562 8.39717 5.30539 9.44491 5.41548 9.59206C5.52568 9.739 6.94005 12.0352 9.18 12.9185C11.0416 13.6526 11.4204 13.5066 11.8245 13.4699C12.2286 13.4331 13.1283 12.9369 13.312 12.4222C13.4957 11.9077 13.4957 11.4667 13.4406 11.3745C13.3855 11.2827 13.2385 11.2276 13.0181 11.1174C12.7977 11.0072 11.7143 10.4739 11.5123 10.4004C11.3102 10.327 11.1633 10.2902 11.0164 10.5109C10.8694 10.7313 10.4473 11.2276 10.3188 11.3745C10.1902 11.5218 10.0616 11.5401 9.8412 11.4299C9.62079 11.3194 8.91104 11.0869 8.06904 10.3361C7.41392 9.75206 6.97161 9.03069 6.84305 8.81007C6.71448 8.58966 6.82926 8.47027 6.93982 8.36041C7.03875 8.26168 7.16022 8.10315 7.27042 7.97446C7.38039 7.84578 7.41711 7.75394 7.49058 7.607C7.56404 7.45983 7.52732 7.33116 7.47222 7.22096C7.41712 7.11075 6.98883 6.02092 6.79288 5.58517Z"
                                      fill="white"
                                    ></path>
                                    <path
                                      d="M15.2346 3.04083C13.5693 1.37436 11.3549 0.456121 8.99561 0.455078C4.13395 0.455078 0.177557 4.41021 0.175603 9.27163C0.17503 10.8256 0.581061 12.3425 1.35282 13.6797L0.101562 18.2485L4.77714 17.0225C6.06536 17.725 7.51579 18.0952 8.99182 18.0958H8.99556C13.8564 18.0958 17.8134 14.14 17.8155 9.27874C17.8163 6.92271 16.8997 4.70742 15.2346 3.04083ZM8.99561 16.6067H8.99274C7.67708 16.606 6.3869 16.2528 5.26157 15.585L4.99375 15.4263L2.21917 16.1537L2.95994 13.4495L2.78545 13.1723C2.05158 12.0054 1.66415 10.6569 1.66472 9.27222C1.66632 5.23157 4.95473 1.94431 8.99837 1.94431C10.9566 1.94512 12.797 2.70839 14.1811 4.0935C15.5652 5.47862 16.3269 7.31991 16.3263 9.2782C16.3246 13.319 13.036 16.6067 8.99561 16.6067Z"
                                      fill="white"
                                    ></path>
                                  </g>
                                  <defs>
                                    <linearGradient
                                      id="_1_6962__paint0_linear_1_6962"
                                      x1="8.96034"
                                      y1="17.9401"
                                      x2="8.96034"
                                      y2="0.762724"
                                      gradientUnits="userSpaceOnUse"
                                    >
                                      <stop stop-color="#20B038"></stop>
                                      <stop
                                        offset="1"
                                        stop-color="#60D66A"
                                      ></stop>
                                    </linearGradient>
                                  </defs>
                                </svg>