<svg
                        preserveAspectRatio="none"
                        id="Vertical_container_32"
                        class="pointer-events-none"
                        width="24"
                        height="25"
                        viewBox="0 0 24 25"
                        fill="none"
                        xmlns="http://www.w3.org/2000/svg"
                      >
                        <path
                          d="M21 12.3028C21 7.33216 16.9706 3.30273 12 3.30273C7.02943 3.30273 3 7.33216 3 12.3028C3 16.7949 6.29117 20.5182 10.5938 21.1934V14.9043H8.30859V12.3028H10.5938V10.3199C10.5938 8.06429 11.9374 6.81835 13.9932 6.81835C14.9779 6.81835 16.0078 6.99413 16.0078 6.99413V9.20898H14.8729C13.7549 9.20898 13.4062 9.90273 13.4062 10.6145V12.3028H15.9023L15.5033 14.9043H13.4062V21.1934C17.7088 20.5182 21 16.7949 21 12.3028Z"
                          fill="#1877F2"
                        ></path>
                        <path
                          d="M15.5033 14.9043L15.9023 12.3027H13.4062V10.6144C13.4062 9.90275 13.7549 9.20899 14.8729 9.20899H16.0078V6.99415C16.0078 6.99415 14.9779 6.81836 13.9932 6.81836C11.9374 6.81836 10.5937 8.0643 10.5937 10.3199V12.3027H8.30859V14.9043H10.5937V21.1934C11.052 21.2653 11.5216 21.3027 12 21.3027C12.4784 21.3027 12.948 21.2653 13.4062 21.1934V14.9043H15.5033Z"
                          fill="white"
                        ></path>
                      </svg>