<svg
                        width="17.875"
                        height="17.875000000000004"
                        viewBox="0 0 17.875 17.875000000000004"
                        fill="none"
                        xmlns="http://www.w3.org/2000/svg"
                        xmlns:xlink="http://www.w3.org/1999/xlink"
                        preserveAspectRatio="none"
                        id="Vertical_container_7"
                        class="pointer-events-none"
                      >
                        <g
                          transform=" translate(0.7447916666666666 0.6302083333333321)"
                          id="Vertical_container_8"
                        >
                          <path
                            d="M16.5 8.25C16.5 7.1666 16.2866 6.0938 15.872 5.0929 15.4574 4.0919 14.8497 3.1825 14.0836 2.4164 13.3175 1.6503 12.4081 1.0426 11.4071 0.628 10.4062 0.2134 9.3334 0 8.25 0 7.1666 0 6.0938 0.2134 5.0929 0.628 4.0919 1.0426 3.1825 1.6503 2.4164 2.4164 1.6503 3.1825 1.0426 4.0919 0.628 5.0929 0.2134 6.0938 0 7.1666 0 8.25 0 10.438 0.8692 12.5365 2.4164 14.0836 3.9635 15.6308 6.062 16.5 8.25 16.5 10.438 16.5 12.5365 15.6308 14.0836 14.0836 15.6308 12.5365 16.5 10.438 16.5 8.25Z"
                            id="Vector_17"
                          ></path>
                          <path
                            d="M5.5 12.375L11 12.375M5.5 9.8285L11 9.8285M9.3958 3.2083L5.5 7.282 6.875 7.282C9.9312 7.282 9.9312 12.375 6.875 12.375"
                            id="Vector_18"
                          ></path>
                        </g>
                      </svg>