<svg
                      preserveAspectRatio="none"
                      id="whatsapp"
                      class="pointer-events-none"
                      width="20"
                      height="21"
                      viewBox="0 0 20 21"
                      fill="none"
                      xmlns="http://www.w3.org/2000/svg"
                    >
                      <path
                        fill-rule="evenodd"
                        clip-rule="evenodd"
                        d="M10 19.5703C14.8325 19.5703 18.75 15.6528 18.75 10.8203C18.75 5.98782 14.8325 2.07031 10 2.07031C5.16751 2.07031 1.25 5.98782 1.25 10.8203C1.25 12.3896 1.66312 13.8624 2.38655 15.1359L1.25 19.5703L5.82179 18.5102C7.06336 19.1862 8.48682 19.5703 10 19.5703ZM10 18.2242C14.089 18.2242 17.4038 14.9093 17.4038 10.8203C17.4038 6.73128 14.089 3.41647 10 3.41647C5.91097 3.41647 2.59615 6.73128 2.59615 10.8203C2.59615 12.3991 3.09031 13.8625 3.9324 15.0642L3.26923 17.5511L5.79996 16.9184C6.99335 17.7419 8.44036 18.2242 10 18.2242Z"
                        fill="#BFC8D0"
                      ></path>
                      <path
                        d="M17.5 10.1953C17.5 14.3374 14.1421 17.6953 10 17.6953C8.4201 17.6953 6.9543 17.2068 5.74541 16.3726L3.18182 17.0135L3.8536 14.4943C3.00058 13.277 2.5 11.7946 2.5 10.1953C2.5 6.05318 5.85786 2.69531 10 2.69531C14.1421 2.69531 17.5 6.05318 17.5 10.1953Z"
                        fill="url(#I1_7264_1041_35735_1054_6998__paint0_linear_11_73)"
                      ></path>
                      <path
                        fill-rule="evenodd"
                        clip-rule="evenodd"
                        d="M10 18.9453C14.8325 18.9453 18.75 15.0278 18.75 10.1953C18.75 5.36282 14.8325 1.44531 10 1.44531C5.16751 1.44531 1.25 5.36282 1.25 10.1953C1.25 11.7646 1.66312 13.2374 2.38655 14.5109L1.25 18.9453L5.82179 17.8852C7.06336 18.5612 8.48682 18.9453 10 18.9453ZM10 17.5992C14.089 17.5992 17.4038 14.2843 17.4038 10.1953C17.4038 6.10628 14.089 2.79147 10 2.79147C5.91097 2.79147 2.59615 6.10628 2.59615 10.1953C2.59615 11.7741 3.09031 13.2375 3.9324 14.4392L3.26923 16.9261L5.79996 16.2934C6.99335 17.1169 8.44036 17.5992 10 17.5992Z"
                        fill="white"
                      ></path>
                      <path
                        d="M7.81251 6.13292C7.60447 5.71506 7.28533 5.75206 6.96292 5.75206C6.38673 5.75206 5.48828 6.44223 5.48828 7.72672C5.48828 8.77942 5.95216 9.93176 7.51526 11.6556C9.02378 13.3192 11.0059 14.1798 12.6514 14.1505C14.2969 14.1212 14.6354 12.7051 14.6354 12.2269C14.6354 12.015 14.5039 11.9092 14.4133 11.8805C13.8525 11.6114 12.8183 11.11 12.583 11.0157C12.3477 10.9215 12.2248 11.049 12.1484 11.1183C11.935 11.3217 11.512 11.921 11.3672 12.0558C11.2224 12.1906 11.0064 12.1224 10.9166 12.0714C10.5859 11.9387 9.68933 11.5399 8.97467 10.8471C8.09083 9.99036 8.03896 9.69558 7.87244 9.43319C7.73922 9.22327 7.83698 9.09448 7.88576 9.0382C8.07619 8.81847 8.33913 8.47924 8.45705 8.31066C8.57496 8.14208 8.48135 7.88613 8.42518 7.72672C8.18361 7.04113 7.97895 6.46721 7.81251 6.13292Z"
                        fill="white"
                      ></path>
                      <defs>
                        <linearGradient
                          id="I1_7264_1041_35735_1054_6998__paint0_linear_11_73"
                          x1="16.5625"
                          y1="4.57031"
                          x2="2.5"
                          y2="17.6953"
                          gradientUnits="userSpaceOnUse"
                        >
                          <stop stop-color="#5BD066"></stop>
                          <stop offset="1" stop-color="#27B43E"></stop>
                        </linearGradient>
                      </defs>
                    </svg>