<svg
                    preserveAspectRatio="none"
                    id="whatsapp_1"
                    class="pointer-events-none"
                    width="20"
                    height="20"
                    viewBox="0 0 20 20"
                    fill="none"
                    xmlns="http://www.w3.org/2000/svg"
                  >
                    <path
                      fill-rule="evenodd"
                      clip-rule="evenodd"
                      d="M10 19.3679C14.8325 19.3679 18.75 15.4504 18.75 10.6179C18.75 5.78543 14.8325 1.86792 10 1.86792C5.16751 1.86792 1.25 5.78543 1.25 10.6179C1.25 12.1872 1.66312 13.66 2.38655 14.9335L1.25 19.3679L5.82179 18.3078C7.06336 18.9838 8.48682 19.3679 10 19.3679ZM10 18.0218C14.089 18.0218 17.4038 14.707 17.4038 10.6179C17.4038 6.52889 14.089 3.21407 10 3.21407C5.91097 3.21407 2.59615 6.52889 2.59615 10.6179C2.59615 12.1967 3.09031 13.6601 3.9324 14.8618L3.26923 17.3487L5.79996 16.716C6.99335 17.5395 8.44036 18.0218 10 18.0218Z"
                      fill="#BFC8D0"
                    ></path>
                    <path
                      d="M17.5 9.99292C17.5 14.1351 14.1421 17.4929 10 17.4929C8.4201 17.4929 6.9543 17.0044 5.74541 16.1702L3.18182 16.8111L3.8536 14.2919C3.00058 13.0746 2.5 11.5922 2.5 9.99292C2.5 5.85078 5.85786 2.49292 10 2.49292C14.1421 2.49292 17.5 5.85078 17.5 9.99292Z"
                      fill="url(#I1_6943_1041_35735_1054_6998__paint0_linear_11_1237)"
                    ></path>
                    <path
                      fill-rule="evenodd"
                      clip-rule="evenodd"
                      d="M10 18.7429C14.8325 18.7429 18.75 14.8254 18.75 9.99292C18.75 5.16043 14.8325 1.24292 10 1.24292C5.16751 1.24292 1.25 5.16043 1.25 9.99292C1.25 11.5622 1.66312 13.035 2.38655 14.3085L1.25 18.7429L5.82179 17.6828C7.06336 18.3588 8.48682 18.7429 10 18.7429ZM10 17.3968C14.089 17.3968 17.4038 14.082 17.4038 9.99292C17.4038 5.90389 14.089 2.58907 10 2.58907C5.91097 2.58907 2.59615 5.90389 2.59615 9.99292C2.59615 11.5717 3.09031 13.0351 3.9324 14.2368L3.26923 16.7237L5.79996 16.091C6.99335 16.9145 8.44036 17.3968 10 17.3968Z"
                      fill="white"
                    ></path>
                    <path
                      d="M7.81251 5.93053C7.60447 5.51267 7.28533 5.54967 6.96292 5.54967C6.38673 5.54967 5.48828 6.23984 5.48828 7.52432C5.48828 8.57703 5.95216 9.72937 7.51526 11.4532C9.02378 13.1168 11.0059 13.9774 12.6514 13.9481C14.2969 13.9188 14.6354 12.5028 14.6354 12.0246C14.6354 11.8126 14.5039 11.7068 14.4133 11.6781C13.8525 11.409 12.8183 10.9076 12.583 10.8134C12.3477 10.7191 12.2248 10.8466 12.1484 10.9159C11.935 11.1193 11.512 11.7186 11.3672 11.8534C11.2224 11.9882 11.0064 11.92 10.9166 11.869C10.5859 11.7363 9.68933 11.3375 8.97467 10.6447C8.09083 9.78796 8.03896 9.49319 7.87244 9.2308C7.73922 9.02088 7.83698 8.89209 7.88576 8.83581C8.07619 8.61608 8.33913 8.27685 8.45705 8.10827C8.57496 7.93969 8.48135 7.68374 8.42518 7.52433C8.18361 6.83874 7.97895 6.26482 7.81251 5.93053Z"
                      fill="white"
                    ></path>
                    <defs>
                      <linearGradient
                        id="I1_6943_1041_35735_1054_6998__paint0_linear_11_1237"
                        x1="16.5625"
                        y1="4.36792"
                        x2="2.5"
                        y2="17.4929"
                        gradientUnits="userSpaceOnUse"
                      >
                        <stop stop-color="#5BD066"></stop>
                        <stop offset="1" stop-color="#27B43E"></stop>
                      </linearGradient>
                    </defs>
                  </svg>