<svg
                          preserveAspectRatio="none"
                          id="youtube_icon_svg"
                          class="pointer-events-none"
                          width="24"
                          height="25"
                          viewBox="0 0 24 25"
                          fill="none"
                          xmlns="http://www.w3.org/2000/svg"
                        >
                          <path
                            d="M20.6292 7.81937C20.4217 7.04389 19.8138 6.43246 19.0428 6.22368C17.6342 5.83594 12 5.83594 12 5.83594C12 5.83594 6.36572 5.83594 4.95716 6.20876C4.20098 6.41755 3.57825 7.04389 3.37067 7.81937C3 9.2361 3 12.1739 3 12.1739C3 12.1739 3 15.1267 3.37067 16.5285C3.57825 17.304 4.18616 17.9155 4.95716 18.1242C6.38055 18.512 12 18.512 12 18.512C12 18.512 17.6342 18.512 19.0428 18.1391C19.8138 17.9304 20.4217 17.3189 20.6292 16.5435C20.9999 15.1267 20.9999 12.1889 20.9999 12.1889C20.9999 12.1889 21.0147 9.2361 20.6292 7.81937Z"
                            fill="#FF0000"
                          ></path>
                          <path
                            d="M14.8913 12.1731L10.2059 9.45898V14.8873L14.8913 12.1731Z"
                            fill="white"
                          ></path>
                        </svg>