<svg width="33" height="33" viewBox="0 0 33 33" fill="none" xmlns="http://www.w3.org/2000/svg">
<rect width="32" height="32" rx="3" fill="white"/>
<path d="M29.7949 0.0771484C31.0552 0.0771484 32.0771 1.09913 32.0771 2.35938V29.7949C32.0771 31.0552 31.0552 32.0771 29.7949 32.0771H2.35938C1.09913 32.0771 0.0771484 31.0552 0.0771484 29.7949V2.35938C0.0771484 1.09913 1.09913 0.0771484 2.35938 0.0771484H29.7949ZM13.9854 8.14062L10.8594 18.2607L8.19824 8.20312H3.43164L8.53809 24.915H12.7471L15.9971 14.7334L19.1846 24.915H23.4248L28.5928 8.20312H23.9199L21.1963 18.292L18.04 8.14062H13.9854Z" fill="url(#paint0_linear_167_6533)"/>
<defs>
<linearGradient id="paint0_linear_167_6533" x1="0.0771484" y1="16.0771" x2="32.0771" y2="16.0771" gradientUnits="userSpaceOnUse">
<stop stop-color="#73E49A"/>
<stop offset="0.989583" stop-color="#32C665"/>
</linearGradient>
</defs>
</svg>
